<?xml version="1.0" encoding="UTF-8" standalone="no"?>
<svg width="15px" height="13px" viewBox="0 0 15 13" version="1.1" xmlns="http://www.w3.org/2000/svg" xmlns:xlink="http://www.w3.org/1999/xlink" xmlns:sketch="http://www.bohemiancoding.com/sketch/ns">
    <!-- Generator: Sketch 3.4.4 (17249) - http://www.bohemiancoding.com/sketch -->
    <title>Slice 1</title>
    <desc>Created with Sketch.</desc>
    <defs></defs>
    <g id="Page-1" stroke="none" stroke-width="1" fill="none" fill-rule="evenodd" sketch:type="MSPage">
        <path d="M14.6936691,11.2032234 L14.6978302,11.2006805 L7.99388123,0.33565979 L7.98972015,0.337971497 C7.8688179,0.136390686 7.64989929,0 7.39746094,0 C7.15426941,0 6.94136124,0.125525665 6.81745377,0.314854431 L6.81352386,0.312542725 L0.10957489,11.1775635 L0.113504791,11.1798752 C0.0423042297,11.2889877 0,11.4186745 0,11.5585327 C0,11.9415825 0.310462189,12.2520447 0.693511963,12.2520447 C0.695592499,12.2520447 0.697673035,12.2513512 0.699753571,12.2513512 L0.699753571,12.2582863 L14.1076515,12.2582863 L14.1076515,12.2513512 C14.4876961,12.2478836 14.7949219,11.939502 14.7949219,11.5585327 C14.7949219,11.4281525 14.7567787,11.3074814 14.6936691,11.2032234 L14.6936691,11.2032234 Z M7.39746094,10.8650208 C6.88680496,10.8650208 6.47277832,10.4509941 6.47277832,9.94033813 C6.47277832,9.42968216 6.88680496,9.01565552 7.39746094,9.01565552 C7.90811691,9.01565552 8.32214355,9.42968216 8.32214355,9.94033813 C8.32214355,10.4509941 7.90811691,10.8650208 7.39746094,10.8650208 L7.39746094,10.8650208 Z M8.32214355,7.39746094 C8.32214355,7.90811691 7.90811691,8.32214355 7.39746094,8.32214355 C6.88680496,8.32214355 6.47277832,7.90811691 6.47277832,7.39746094 L6.47277832,3.92990112 C6.47277832,3.41924515 6.88680496,3.00521851 7.39746094,3.00521851 C7.90811691,3.00521851 8.32214355,3.41924515 8.32214355,3.92990112 L8.32214355,7.39746094 L8.32214355,7.39746094 Z" id="Shape" fill="#000000" sketch:type="MSShapeGroup"></path>
    </g>
</svg>