<?xml version="1.0" encoding="UTF-8" standalone="no"?>
<svg width="121px" height="40px" viewBox="0 0 121 40" version="1.1" xmlns="http://www.w3.org/2000/svg" xmlns:xlink="http://www.w3.org/1999/xlink" xmlns:sketch="http://www.bohemiancoding.com/sketch/ns">
    <!-- Generator: Sketch 3.4.4 (17249) - http://www.bohemiancoding.com/sketch -->
    <title>Slice 1</title>
    <desc>Created with Sketch.</desc>
    <defs></defs>
    <g id="Page-1" stroke="none" stroke-width="1" fill="none" fill-rule="evenodd" sketch:type="MSPage">
        <g id="kaizen-logo" sketch:type="MSLayerGroup" fill="#FFFFFF">
            <path d="M19.8180787,38.8679689 L0.708926151,19.7551124 L19.8188195,0.644478319 L38.9301944,19.7551124 L19.8180787,38.8679689 L19.8180787,38.8679689 Z M3.2149838,19.7551124 L19.8180787,36.3604297 L36.423396,19.7551124 L19.8180787,3.15127675 L3.2149838,19.7551124 L3.2149838,19.7551124 Z" id="Shape" sketch:type="MSShapeGroup"></path>
            <path d="M50.9878652,7.34779362 L55.0799321,7.34779362 L50.0285555,13.3592207 L55.5347709,20.0432757 L51.2589906,20.0432757 L46.9980259,14.5370604 L46.9646908,14.5370604 L46.9646908,20.0432757 L43.6645173,20.0432757 L43.6645173,7.34779362 L46.9646908,7.34779362 L46.9646908,12.5843652 L46.9980259,12.5843652 L50.9878652,7.34779362 L50.9878652,7.34779362 Z" id="Shape" sketch:type="MSShapeGroup"></path>
            <path d="M62.0151115,17.8387154 L61.1380283,20.0447573 L57.6371036,20.0447573 L62.5195824,7.3485344 L66.1227348,7.3485344 L70.9044676,20.0447573 L67.3857642,20.0447573 L66.5597948,17.8387154 L62.0151115,17.8387154 L62.0151115,17.8387154 Z M64.3226402,11.270222 L64.2870828,11.270222 L62.9247889,15.3126567 L65.6701184,15.3126567 L64.3226402,11.270222 L64.3226402,11.270222 Z" id="Shape" sketch:type="MSShapeGroup"></path>
            <path d="M77.9255774,20.0440165 L74.6246632,20.0440165 L74.6246632,7.34779362 L77.9255774,7.34779362 L77.9255774,20.0440165 L77.9255774,20.0440165 Z" id="Shape" sketch:type="MSShapeGroup"></path>
            <path d="M91.7485262,17.2490548 L91.7485262,20.0440165 L80.8701766,20.0440165 L86.8816037,10.1442369 L81.8968973,10.1442369 L81.8968973,7.3485344 L92.4041162,7.3485344 L86.4275058,17.2490548 L91.7485262,17.2490548 L91.7485262,17.2490548 Z" id="Shape" sketch:type="MSShapeGroup"></path>
            <path d="M99.6593124,10.1442369 L99.6593124,12.2650891 L103.38173,12.2650891 L103.38173,15.0600508 L99.6593124,15.0600508 L99.6593124,17.248314 L103.581741,17.248314 L103.581741,20.0432757 L96.3598797,20.0432757 L96.3598797,7.34779362 L103.581741,7.34779362 L103.581741,10.1434961 L99.6593124,10.1434961 L99.6593124,10.1442369 Z" id="Shape" sketch:type="MSShapeGroup"></path>
            <path d="M107.975305,7.34779362 L111.275478,7.34779362 L117.320981,15.1104239 L117.354317,15.1104239 L117.354317,7.34779362 L120.653749,7.34779362 L120.653749,20.0440165 L117.354317,20.0440165 L111.310295,12.2650891 L111.275478,12.2650891 L111.275478,20.0440165 L107.975305,20.0440165 L107.975305,7.34779362 L107.975305,7.34779362 Z" id="Shape" sketch:type="MSShapeGroup"></path>
            <path d="M46.8728341,22.7263797 L40.4399034,38.2686781 L38.0316286,38.2686781 L44.4645594,22.7263797 L46.8728341,22.7263797 L46.8728341,22.7263797 Z" id="Shape" sketch:type="MSShapeGroup"></path>
            <path d="M49.6989086,24.0079286 L54.3784138,24.0079286 C57.9156368,24.0079286 60.8283824,26.7851116 60.8283824,30.3541881 C60.8283824,33.9254869 57.8985988,36.7034107 54.3784138,36.7034107 L49.6989086,36.7034107 L49.6989086,24.0079286 L49.6989086,24.0079286 Z M52.9983413,33.9077082 L53.7398617,33.9077082 C55.7081133,33.9077082 57.3926463,32.8298738 57.3926463,30.3541881 C57.3926463,28.0822168 55.8955306,26.8021495 53.7731968,26.8021495 L52.9983413,26.8021495 L52.9983413,33.9077082 L52.9983413,33.9077082 Z" id="Shape" sketch:type="MSShapeGroup"></path>
            <path d="M67.4250255,26.8021495 L67.4250255,28.9230017 L71.1467026,28.9230017 L71.1467026,31.7179635 L67.4250255,31.7179635 L67.4250255,33.9069674 L71.3474539,33.9069674 L71.3474539,36.7026699 L64.124852,36.7026699 L64.124852,24.0079286 L71.3474539,24.0079286 L71.3474539,26.8021495 L67.4250255,26.8021495 L67.4250255,26.8021495 Z" id="Shape" sketch:type="MSShapeGroup"></path>
            <path d="M81.1450059,31.7187042 L84.2266493,24.0079286 L87.8127638,24.0079286 L82.3895157,36.7041515 L79.8308627,36.7041515 L74.4928044,24.0079286 L78.0804004,24.0079286 L81.1450059,31.7187042 L81.1450059,31.7187042 Z" id="Shape" sketch:type="MSShapeGroup"></path>
            <path d="M96.9517626,27.2725446 C96.3472864,26.7680736 95.5731717,26.4310189 94.7642403,26.4310189 C94.1575417,26.4310189 93.3486103,26.7851116 93.3486103,27.4925562 C93.3486103,28.2333359 94.2419906,28.5192768 94.8138725,28.7052125 L95.6583613,28.9578184 C97.4258616,29.4793273 98.7888962,30.3719668 98.7888962,32.4268896 C98.7888962,33.6891782 98.4851766,34.9870242 97.4754939,35.844847 C96.4821083,36.6871135 95.1524088,37.0404654 93.8730823,37.0404654 C92.273739,37.0404654 90.70699,36.5011778 89.4113663,35.5929819 L90.8247739,32.9321013 C91.6500025,33.6558431 92.6270909,34.2455037 93.7545576,34.2455037 C94.5301539,34.2455037 95.3561232,33.8580759 95.3561232,32.9646957 C95.3561232,32.0387211 94.0575364,31.7179635 93.3500918,31.5164714 C91.2796127,30.9268108 89.9158373,30.3890047 89.9158373,27.9288754 C89.9158373,25.3531845 91.7522301,23.6693923 94.2945859,23.6693923 C95.5746532,23.6693923 97.1384391,24.0745987 98.2673873,24.7131508 L96.9517626,27.2725446 L96.9517626,27.2725446 Z" id="Shape" sketch:type="MSShapeGroup"></path>
            <path d="M15.5978569,18.7454297 C15.5978569,17.584628 16.6208736,16.562352 18.5809767,16.562352 C20.543302,16.562352 21.6752134,17.5016607 23.3604871,17.5016607 C25.0739105,17.5016607 24.8820486,15.4171066 26.5917681,15.4852584 C27.2821747,15.5126672 29.4934021,16.9208894 29.4934021,17.4749926 C29.4934021,18.1653993 28.3896404,19.094337 27.6421937,19.2980514 C26.7310347,19.5469534 26.4828735,19.269161 26.4258334,19.4632452 C26.1635974,20.3840344 25.4865248,22.3648792 22.4759962,22.3648792 C18.4987501,22.3641385 15.5978569,19.9054907 15.5978569,18.7454297 L15.5978569,18.7454297 Z" id="Shape" sketch:type="MSShapeGroup"></path>
            <path d="M26.1235953,15.9823215 C26.0517397,16.0971424 25.4739316,15.9060212 24.6301835,15.5956346 C23.5812395,15.2089476 22.7248982,14.8504102 21.9515242,14.2696389 C21.2018552,13.7081279 20.6255286,12.4191713 20.8181313,12.198419 C21.0507361,11.9339606 22.4678476,12.793265 23.2782606,13.3036622 C24.547957,14.1037043 26.2947154,15.7097146 26.1235953,15.9823215 L26.1235953,15.9823215 Z" id="Shape" sketch:type="MSShapeGroup"></path>
            <path d="M23.4990129,17.8609388 C24.16127,17.7505626 24.5212889,17.7505626 25.1850275,18.4128197 C25.8465437,19.0765583 25.791726,20.5677477 26.6480673,20.4581124 C27.5029271,20.3469954 29.0993073,19.3365719 30.183068,20.3188458 C30.7630985,20.8440586 30.2667761,21.9493018 29.1889416,21.1203694 C28.1837036,20.3462546 25.5702329,23.6901341 23.1115852,21.5618741 C21.2211154,19.9254918 22.8360151,17.971315 23.4990129,17.8609388 L23.4990129,17.8609388 Z" id="Shape" sketch:type="MSShapeGroup"></path>
            <path d="M20.2944,18.7180209 C20.3766266,19.4076868 19.575103,21.8670753 16.4541982,22.1982038 C14.6474366,22.389325 13.5258961,21.6181733 13.028833,22.1144957 C13.028833,22.1144957 11.5361619,24.9057535 10.3205425,24.6850012 C9.85829595,24.6005523 9.76866161,24.0212626 9.99163629,23.7175429 C10.2123886,23.4138233 11.0131715,23.7723606 11.3709681,23.1649213 C11.7287646,22.5567412 11.61987,20.8440586 12.8895664,20.8166497 C14.1614851,20.7892409 14.4940952,20.4847804 14.908191,19.7388153 C15.3222869,18.9935909 15.9860254,17.6127776 17.9194604,17.335726 C19.5899186,17.0979357 20.2121735,18.0268735 20.2944,18.7180209 L20.2944,18.7180209 Z" id="Shape" sketch:type="MSShapeGroup"></path>
            <path d="M14.0511089,16.7556955 C14.0444419,16.1764058 14.4044608,15.2082068 14.6859571,15.2082068 C14.9674534,15.2082068 14.8170751,15.9467641 15.6067462,16.0401024 C16.979411,16.2038147 17.5890727,17.0957134 17.2275722,17.9690926 C16.6979147,19.2602716 14.0785178,18.8550651 14.0511089,16.7556955 L14.0511089,16.7556955 Z" id="Shape" sketch:type="MSShapeGroup"></path>
        </g>
    </g>
</svg>