<?xml version="1.0" encoding="UTF-8" standalone="no"?>
<svg width="28px" height="28px" viewBox="0 0 28 28" version="1.1" xmlns="http://www.w3.org/2000/svg" xmlns:xlink="http://www.w3.org/1999/xlink" xmlns:sketch="http://www.bohemiancoding.com/sketch/ns">
    <!-- Generator: Sketch 3.4.4 (17249) - http://www.bohemiancoding.com/sketch -->
    <title>z</title>
    <desc>Created with Sketch.</desc>
    <defs></defs>
    <g id="Page-1" stroke="none" stroke-width="1" fill="none" fill-rule="evenodd" sketch:type="MSPage">
        <g id="z" sketch:type="MSArtboardGroup" fill="#000000">
            <g id="rabbit" sketch:type="MSLayerGroup">
                <path d="M14.0907576,27.8255425 L0.320089232,14.0522051 L14.0912914,0.280469067 L27.8635612,14.0522051 L14.0907576,27.8255425 L14.0907576,27.8255425 Z M2.12603477,14.0522051 L14.0907576,26.0185294 L26.0570819,14.0522051 L14.0907576,2.08694843 L2.12603477,14.0522051 L2.12603477,14.0522051 Z" id="Shape" sketch:type="MSShapeGroup"></path>
                <path d="M11.0495303,13.3245953 C11.0495303,12.4880843 11.786749,11.7513995 13.1992621,11.7513995 C14.6133767,11.7513995 15.4290684,12.4282954 16.6435307,12.4282954 C17.8782786,12.4282954 17.7400167,10.9260989 18.9720954,10.9752113 C19.4696246,10.9949629 21.063106,12.009773 21.063106,12.4090776 C21.063106,12.9066067 20.2676999,13.5760291 19.7290658,13.7228322 C19.0724554,13.9021989 18.8936225,13.7020128 18.8525176,13.8418762 C18.6635419,14.5054264 18.1756217,15.9328867 16.0061382,15.9328867 C13.1400071,15.9323529 11.0495303,14.1605725 11.0495303,13.3245953 L11.0495303,13.3245953 Z" id="Shape" sketch:type="MSShapeGroup"></path>
                <path d="M18.6347151,11.3334109 C18.5829336,11.4161545 18.1665466,11.2784265 17.5585146,11.0547519 C16.8026119,10.7760928 16.1855049,10.5177193 15.6281868,10.0991969 C15.0879513,9.69455405 14.6726318,8.76569054 14.8114275,8.60660932 C14.97905,8.41603216 16.000266,9.03527449 16.5842756,9.40308308 C17.4992596,9.97961905 18.7580298,11.1369616 18.6347151,11.3334109 L18.6347151,11.3334109 Z" id="Shape" sketch:type="MSShapeGroup"></path>
                <path d="M16.7433568,12.6872028 C17.2206005,12.6076622 17.4800417,12.6076622 17.958353,13.0849058 C18.4350628,13.5632172 18.3955595,14.6378161 19.0126665,14.5588094 C19.6287058,14.4787349 20.7791086,13.7505913 21.5601013,14.4584494 C21.9780899,14.8369346 21.6204241,15.6334083 20.843702,15.036053 C20.1192952,14.4782011 18.2359444,16.8879079 16.464164,15.3542155 C15.1018308,14.1749859 16.2655794,12.7667434 16.7433568,12.6872028 L16.7433568,12.6872028 Z" id="Shape" sketch:type="MSShapeGroup"></path>
                <path d="M14.43401,13.3048436 C14.4932651,13.801839 13.9156615,15.5741533 11.6666374,15.8127751 C10.364627,15.9505031 9.55640896,15.3947865 9.19820929,15.7524523 C9.19820929,15.7524523 8.12254265,17.7639223 7.24652828,17.604841 C6.91341861,17.5439845 6.84882523,17.1265297 7.00950794,16.9076596 C7.16858916,16.6887895 7.74565896,16.947163 8.00349865,16.5094227 C8.26133835,16.0711486 8.1828654,14.8369346 9.09784933,14.8171829 C10.0144348,14.7974312 10.2541242,14.5780272 10.552535,14.0404608 C10.8509457,13.5034282 11.3292571,12.5083699 12.7225523,12.3087176 C13.9263381,12.1373583 14.3747549,12.8067806 14.43401,13.3048436 L14.43401,13.3048436 Z" id="Shape" sketch:type="MSShapeGroup"></path>
                <path d="M9.93489414,11.890729 C9.93008967,11.4732743 10.1895309,10.775559 10.3923861,10.775559 C10.5952414,10.775559 10.4868739,11.3077871 11.0559363,11.3750496 C12.0451225,11.493026 12.4844643,12.1357568 12.2239555,12.7651419 C11.8422673,13.6956069 9.95464584,13.4036021 9.93489414,11.890729 L9.93489414,11.890729 Z" id="Shape" sketch:type="MSShapeGroup"></path>
            </g>
        </g>
    </g>
</svg>