<?xml version="1.0" encoding="UTF-8" standalone="no"?>
<svg width="58px" height="58px" viewBox="0 0 58 58" version="1.1" xmlns="http://www.w3.org/2000/svg" xmlns:xlink="http://www.w3.org/1999/xlink" xmlns:sketch="http://www.bohemiancoding.com/sketch/ns">
    <!-- Generator: Sketch 3.4.4 (17249) - http://www.bohemiancoding.com/sketch -->
    <title>Artboard 1</title>
    <desc>Created with Sketch.</desc>
    <defs></defs>
    <g id="Page-1" stroke="none" stroke-width="1" fill="none" fill-rule="evenodd" sketch:type="MSPage">
        <g id="Artboard-1" sketch:type="MSArtboardGroup" fill="#3CD52E">
            <g id="rabbit" sketch:type="MSLayerGroup" transform="translate(2.000000, 2.000000)">
                <path d="M26.3956094,52.1243906 L0.599609375,26.3233906 L26.3966094,0.525390625 L52.1956094,26.3233906 L26.3956094,52.1243906 L26.3956094,52.1243906 Z M26.3956094,48.7393906 L48.8116094,26.3233906 L26.3956094,3.90939062 L3.98260938,26.3233906 L26.3956094,48.7393906 Z" id="Shape" sketch:type="MSShapeGroup"></path>
                <path d="M20.6986094,24.9603906 C20.6986094,23.3933906 22.0796094,22.0133906 24.7256094,22.0133906 C27.3746094,22.0133906 28.9026094,23.2813906 31.1776094,23.2813906 C33.4906094,23.2813906 33.2316094,20.4673906 35.5396094,20.5593906 C36.4716094,20.5963906 39.4566094,22.4973906 39.4566094,23.2453906 C39.4566094,24.1773906 37.9666094,25.4313906 36.9576094,25.7063906 C35.7276094,26.0423906 35.3926094,25.6673906 35.3156094,25.9293906 C34.9616094,27.1723906 34.0476094,29.8463906 29.9836094,29.8463906 C24.6146094,29.8453906 20.6986094,26.5263906 20.6986094,24.9603906 L20.6986094,24.9603906 Z" id="Shape" sketch:type="MSShapeGroup"></path>
                <path d="M34.9076094,21.2303906 C34.8106094,21.3853906 34.0306094,21.1273906 32.8916094,20.7083906 C31.4756094,20.1863906 30.3196094,19.7023906 29.2756094,18.9183906 C28.2636094,18.1603906 27.4856094,16.4203906 27.7456094,16.1223906 C28.0596094,15.7653906 29.9726094,16.9253906 31.0666094,17.6143906 C32.7806094,18.6943906 35.1386094,20.8623906 34.9076094,21.2303906 L34.9076094,21.2303906 Z" id="Shape" sketch:type="MSShapeGroup"></path>
                <path d="M31.3646094,23.7663906 C32.2586094,23.6173906 32.7446094,23.6173906 33.6406094,24.5113906 C34.5336094,25.4073906 34.4596094,27.4203906 35.6156094,27.2723906 C36.7696094,27.1223906 38.9246094,25.7583906 40.3876094,27.0843906 C41.1706094,27.7933906 40.5006094,29.2853906 39.0456094,28.1663906 C37.6886094,27.1213906 34.1606094,31.6353906 30.8416094,28.7623906 C28.2896094,26.5533906 30.4696094,23.9153906 31.3646094,23.7663906 L31.3646094,23.7663906 Z" id="Shape" sketch:type="MSShapeGroup"></path>
                <path d="M27.0386094,24.9233906 C27.1496094,25.8543906 26.0676094,29.1743906 21.8546094,29.6213906 C19.4156094,29.8793906 17.9016094,28.8383906 17.2306094,29.5083906 C17.2306094,29.5083906 15.2156094,33.2763906 13.5746094,32.9783906 C12.9506094,32.8643906 12.8296094,32.0823906 13.1306094,31.6723906 C13.4286094,31.2623906 14.5096094,31.7463906 14.9926094,30.9263906 C15.4756094,30.1053906 15.3286094,27.7933906 17.0426094,27.7563906 C18.7596094,27.7193906 19.2086094,27.3083906 19.7676094,26.3013906 C20.3266094,25.2953906 21.2226094,23.4313906 23.8326094,23.0573906 C26.0876094,22.7363906 26.9276094,23.9903906 27.0386094,24.9233906 L27.0386094,24.9233906 Z" id="Shape" sketch:type="MSShapeGroup"></path>
                <path d="M18.6106094,22.2743906 C18.6016094,21.4923906 19.0876094,20.1853906 19.4676094,20.1853906 C19.8476094,20.1853906 19.6446094,21.1823906 20.7106094,21.3083906 C22.5636094,21.5293906 23.3866094,22.7333906 22.8986094,23.9123906 C22.1836094,25.6553906 18.6476094,25.1083906 18.6106094,22.2743906 L18.6106094,22.2743906 Z" id="Shape" sketch:type="MSShapeGroup"></path>
            </g>
        </g>
    </g>
</svg>