<?xml version="1.0" encoding="UTF-8" standalone="no"?>
<svg width="178px" height="68px" viewBox="0 0 178 68" version="1.1" xmlns="http://www.w3.org/2000/svg" xmlns:xlink="http://www.w3.org/1999/xlink" xmlns:sketch="http://www.bohemiancoding.com/sketch/ns">
    <!-- Generator: Sketch 3.4.4 (17249) - http://www.bohemiancoding.com/sketch -->
    <title>v</title>
    <desc>Created with Sketch.</desc>
    <defs></defs>
    <g id="Page-1" stroke="none" stroke-width="1" fill="none" fill-rule="evenodd" sketch:type="MSPage">
        <g id="v" sketch:type="MSArtboardGroup" fill="#3CD52E">
            <g id="kaizen-logo" sketch:type="MSLayerGroup" transform="translate(9.000000, 9.000000)">
                <path d="M25.4080297,50.9229303 L0.00964201412,25.5196197 L25.4090143,0.119262874 L50.8103557,25.5196197 L25.4080297,50.9229303 L25.4080297,50.9229303 Z M3.3404974,25.5196197 L25.4080297,47.5901057 L47.4785157,25.5196197 L25.4080297,3.45110284 L3.3404974,25.5196197 L3.3404974,25.5196197 Z" id="Shape" sketch:type="MSShapeGroup"></path>
                <path d="M66.8364666,9.02878412 L72.2753212,9.02878412 L65.5614273,17.0187018 L72.8798571,25.9026238 L67.1968251,25.9026238 L61.5334849,18.584194 L61.4891785,18.584194 L61.4891785,25.9026238 L57.1028466,25.9026238 L57.1028466,9.02878412 L61.4891785,9.02878412 L61.4891785,15.9888245 L61.5334849,15.9888245 L66.8364666,9.02878412 L66.8364666,9.02878412 Z" id="Shape" sketch:type="MSShapeGroup"></path>
                <path d="M81.4930179,22.972495 L80.3272678,25.9045929 L75.674113,25.9045929 L82.1635212,9.0297687 L86.9525488,9.0297687 L93.3080533,25.9045929 L88.6312684,25.9045929 L87.5334547,22.972495 L81.4930179,22.972495 L81.4930179,22.972495 Z M84.5600042,14.2421685 L84.512744,14.2421685 L82.7020899,19.6150558 L86.3509666,19.6150558 L84.5600042,14.2421685 L84.5600042,14.2421685 Z" id="Shape" sketch:type="MSShapeGroup"></path>
                <path d="M102.639962,25.9036084 L98.2526456,25.9036084 L98.2526456,9.02878412 L102.639962,9.02878412 L102.639962,25.9036084 L102.639962,25.9036084 Z" id="Shape" sketch:type="MSShapeGroup"></path>
                <path d="M121.012342,22.1887643 L121.012342,25.9036084 L106.553692,25.9036084 L114.54361,12.7455973 L107.918329,12.7455973 L107.918329,9.0297687 L121.883701,9.0297687 L113.940059,22.1887643 L121.012342,22.1887643 L121.012342,22.1887643 Z" id="Shape" sketch:type="MSShapeGroup"></path>
                <path d="M131.526739,12.7455973 L131.526739,15.5644678 L136.474285,15.5644678 L136.474285,19.2793119 L131.526739,19.2793119 L131.526739,22.1877797 L136.740123,22.1877797 L136.740123,25.9026238 L127.141392,25.9026238 L127.141392,9.02878412 L136.740123,9.02878412 L136.740123,12.7446127 L131.526739,12.7446127 L131.526739,12.7455973 Z" id="Shape" sketch:type="MSShapeGroup"></path>
                <path d="M142.579704,9.02878412 L146.966036,9.02878412 L155.001245,19.3462637 L155.045551,19.3462637 L155.045551,9.02878412 L159.430899,9.02878412 L159.430899,25.9036084 L155.045551,25.9036084 L147.012312,15.5644678 L146.966036,15.5644678 L146.966036,25.9036084 L142.579704,25.9036084 L142.579704,9.02878412 L142.579704,9.02878412 Z" id="Shape" sketch:type="MSShapeGroup"></path>
                <path d="M61.3670898,29.4687953 L52.8169425,50.1264 L49.6160525,50.1264 L58.1661998,29.4687953 L61.3670898,29.4687953 L61.3670898,29.4687953 Z" id="Shape" sketch:type="MSShapeGroup"></path>
                <path d="M65.1232864,31.1721295 L71.342918,31.1721295 C76.0443174,31.1721295 79.9157107,34.8633435 79.9157107,39.6070802 C79.9157107,44.3537706 76.021672,48.0459692 71.342918,48.0459692 L65.1232864,48.0459692 L65.1232864,31.1721295 L65.1232864,31.1721295 Z M69.5086337,44.3301406 L70.4942046,44.3301406 C73.1102503,44.3301406 75.3491995,42.8975675 75.3491995,39.6070802 C75.3491995,36.5873541 73.3593507,34.885989 70.538511,34.885989 L69.5086337,34.885989 L69.5086337,44.3301406 L69.5086337,44.3301406 Z" id="Shape" sketch:type="MSShapeGroup"></path>
                <path d="M88.6834515,34.885989 L88.6834515,37.7048595 L93.630013,37.7048595 L93.630013,41.4197035 L88.6834515,41.4197035 L88.6834515,44.329156 L93.8968359,44.329156 L93.8968359,48.0449846 L84.2971196,48.0449846 L84.2971196,31.1721295 L93.8968359,31.1721295 L93.8968359,34.885989 L88.6834515,34.885989 L88.6834515,34.885989 Z" id="Shape" sketch:type="MSShapeGroup"></path>
                <path d="M106.918974,41.4206881 L111.014853,31.1721295 L115.781235,31.1721295 L108.573079,48.0469538 L105.172318,48.0469538 L98.0773892,31.1721295 L102.845741,31.1721295 L106.918974,41.4206881 L106.918974,41.4206881 Z" id="Shape" sketch:type="MSShapeGroup"></path>
                <path d="M127.928076,35.5112013 C127.124654,34.840698 126.095761,34.3927113 125.020593,34.3927113 C124.214217,34.3927113 123.139048,34.8633435 123.139048,35.8036234 C123.139048,36.7882097 124.326459,37.16826 125.08656,37.4153911 L126.208988,37.7511351 C128.558211,38.4442838 130.36985,39.6307103 130.36985,42.3619526 C130.36985,44.0396876 129.96617,45.7646828 128.624179,46.9048337 C127.303848,48.0243083 125.536516,48.493956 123.836135,48.493956 C121.710414,48.493956 119.628014,47.7771771 117.905972,46.5700744 L119.784563,43.0334404 C120.881392,43.9953812 122.180061,44.7791119 123.678602,44.7791119 C124.709463,44.7791119 125.807277,44.2641733 125.807277,43.0767622 C125.807277,41.8460294 124.081297,41.4197035 123.141018,41.1518961 C120.389099,40.3681654 118.576476,39.6533558 118.576476,36.3835447 C118.576476,32.9601382 121.017265,30.7221736 124.396365,30.7221736 C126.09773,30.7221736 128.176192,31.2607423 129.676701,32.1094557 L127.928076,35.5112013 L127.928076,35.5112013 Z" id="Shape" sketch:type="MSShapeGroup"></path>
                <path d="M19.7988416,24.1776286 C19.7988416,22.6347819 21.1585553,21.2760528 23.7637706,21.2760528 C26.3719396,21.2760528 27.8763875,22.5245082 30.1163213,22.5245082 C32.3936693,22.5245082 32.1386615,19.7538825 34.4110866,19.8444644 C35.328721,19.8808941 38.2677111,21.7525926 38.2677111,22.4890631 C38.2677111,23.4066976 36.8006775,24.6413687 35.80723,24.91213 C34.5961888,25.242951 34.2663524,24.8737311 34.1905393,25.1316927 C33.8419957,26.3555335 32.9420839,28.9883172 28.9407252,28.9883172 C23.6544815,28.9873326 19.7988416,25.7194907 19.7988416,24.1776286 L19.7988416,24.1776286 Z" id="Shape" sketch:type="MSShapeGroup"></path>
                <path d="M33.7888281,20.5051218 C33.6933232,20.6577327 32.9253459,20.4037094 31.8039021,19.9911678 C30.409728,19.4772137 29.2715462,19.000674 28.2436382,18.2287583 C27.2472368,17.4824419 26.4812287,15.7692618 26.7372212,15.4758551 C27.0463812,15.1243578 28.9298948,16.2664779 30.0070322,16.9448578 C31.6946131,18.008211 34.0162675,20.142794 33.7888281,20.5051218 L33.7888281,20.5051218 Z" id="Shape" sketch:type="MSShapeGroup"></path>
                <path d="M30.3004389,23.0020326 C31.180659,22.8553292 31.659168,22.8553292 32.5413573,23.7355494 C33.4205928,24.6177387 33.3477334,26.5997109 34.4859152,26.4539921 C35.6221277,26.3063041 37.7439112,24.9633285 39.1843609,26.2688899 C39.955292,26.9669615 39.2956191,28.4359643 37.8630461,27.3342122 C36.5269625,26.3053196 33.0533421,30.749742 29.7855003,27.9210256 C27.2728361,25.7460746 29.4192342,23.1487359 30.3004389,23.0020326 L30.3004389,23.0020326 Z" id="Shape" sketch:type="MSShapeGroup"></path>
                <path d="M26.0411187,24.1411989 C26.1504077,25.0578487 25.0850854,28.3266752 20.9370234,28.7667853 C18.5356174,29.0208085 17.0449538,27.9958542 16.3842964,28.655527 C16.3842964,28.655527 14.4003551,32.3654481 12.784649,32.0720414 C12.1702672,31.9597986 12.0511322,31.1898521 12.3474927,30.7861717 C12.6408994,30.3824913 13.7052372,30.8590311 14.1807923,30.0516704 C14.6563475,29.243325 14.5116133,26.9669615 16.1991942,26.9305318 C17.8897288,26.8941022 18.3318081,26.4894372 18.8821918,25.4979588 C19.4325755,24.507465 20.3147649,22.6721962 22.884535,22.3039609 C25.1047771,21.9879087 25.9318296,23.2225799 26.0411187,24.1411989 L26.0411187,24.1411989 Z" id="Shape" sketch:type="MSShapeGroup"></path>
                <path d="M17.7430255,21.5330299 C17.7341642,20.7630834 18.2126731,19.4762291 18.5868159,19.4762291 C18.9609587,19.4762291 18.7610877,20.4578616 19.8106567,20.5819195 C21.6350951,20.7995131 22.4454096,21.984955 21.9649315,23.1457822 C21.2609523,24.8619161 17.7794552,24.3233474 17.7430255,21.5330299 L17.7430255,21.5330299 Z" id="Shape" sketch:type="MSShapeGroup"></path>
            </g>
        </g>
    </g>
</svg>