<?xml version="1.0" encoding="UTF-8" standalone="no"?>
<svg width="76px" height="76px" viewBox="0 0 76 76" version="1.1" xmlns="http://www.w3.org/2000/svg" xmlns:xlink="http://www.w3.org/1999/xlink" xmlns:sketch="http://www.bohemiancoding.com/sketch/ns">
    <!-- Generator: Sketch 3.4.4 (17249) - http://www.bohemiancoding.com/sketch -->
    <title>Slice 1</title>
    <desc>Created with Sketch.</desc>
    <defs></defs>
    <g id="Page-1" stroke="none" stroke-width="1" fill="none" fill-rule="evenodd" sketch:type="MSPage">
        <g id="rabbit" sketch:type="MSLayerGroup" fill="#3CD52E">
            <path d="M38.4326202,75.8943232 L0.873045174,38.327468 L38.4340762,0.764980951 L75.9980193,38.327468 L38.4326202,75.8943232 L38.4326202,75.8943232 Z M5.79877173,38.327468 L38.4326202,70.9656846 L71.0708368,38.327468 L38.4326202,5.69216353 L5.79877173,38.327468 L5.79877173,38.327468 Z" id="Shape" sketch:type="MSShapeGroup"></path>
            <path d="M30.1376559,36.3429084 C30.1376559,34.06132 32.148424,32.0520079 36.0010614,32.0520079 C39.8580669,32.0520079 42.0828704,33.8982454 45.3953233,33.8982454 C48.763105,33.8982454 48.385995,29.800996 51.7464966,29.9349502 C53.1035102,29.988823 57.4497395,32.7567232 57.4497395,33.8458286 C57.4497395,35.2028422 55.2802649,37.0286953 53.8111375,37.4291017 C52.0202289,37.9183255 51.5324611,37.3723168 51.4203474,37.7537949 C50.9049151,39.5636317 49.5741099,43.4570378 43.6568315,43.4570378 C35.8394429,43.4555818 30.1376559,38.6230407 30.1376559,36.3429084 L30.1376559,36.3429084 Z" id="Shape" sketch:type="MSShapeGroup"></path>
            <path d="M50.8262899,30.9119418 C50.6850556,31.1376254 49.5493575,30.7619714 47.8909471,30.1518976 C45.8292182,29.3918535 44.1460553,28.6871383 42.6259671,27.5456161 C41.1524716,26.4419505 40.0196855,23.9084701 40.3982516,23.4745751 C40.8554429,22.9547749 43.6408153,24.6437618 45.2337047,25.6469618 C47.7293285,27.2194669 51.1626312,30.3761252 50.8262899,30.9119418 L50.8262899,30.9119418 Z" id="Shape" sketch:type="MSShapeGroup"></path>
            <path d="M45.6675996,34.6044167 C46.9692844,34.3874692 47.6769116,34.3874692 48.9815085,35.689154 C50.2817372,36.9937508 50.1739915,39.9247255 51.8571543,39.7092341 C53.5374051,39.4908306 56.6751352,37.5048149 58.8052971,39.4355017 C59.9453633,40.4678222 58.9698278,42.6402088 56.851314,41.0109188 C54.8754905,39.4893746 49.7386405,46.0618634 44.9060995,41.8787087 C41.1903282,38.6623534 44.3644588,34.8213641 45.6675996,34.6044167 L45.6675996,34.6044167 Z" id="Shape" sketch:type="MSShapeGroup"></path>
            <path d="M39.3688431,36.2890355 C39.5304617,37.6445931 37.9550446,42.4785902 31.8208188,43.1294326 C28.2695781,43.5050866 26.065159,41.9893664 25.0881674,42.964902 C25.0881674,42.964902 22.1542806,48.4511975 19.7649465,48.0173026 C18.856388,47.8513159 18.6802092,46.7127058 19.1184722,46.1157362 C19.5523671,45.5187667 21.1263282,46.223482 21.8295874,45.0295429 C22.5328466,43.8341479 22.3188112,40.4678222 24.814435,40.4139493 C27.3144269,40.3600765 27.9681813,39.7616509 28.7820983,38.2954355 C29.5960153,36.8306762 30.9006121,34.1166489 34.7008327,33.5720962 C37.9841651,33.1047127 39.2072246,34.9305659 39.3688431,36.2890355 L39.3688431,36.2890355 Z" id="Shape" sketch:type="MSShapeGroup"></path>
            <path d="M27.0974794,32.43203 C27.0843752,31.2934198 27.7920025,29.3903975 28.3452913,29.3903975 C28.8985802,29.3903975 28.6030074,30.8420526 30.1551282,31.0255116 C32.8531392,31.3472927 34.0514463,33.1003447 33.340907,34.816996 C32.2998504,37.3548445 27.1513523,36.5583998 27.0974794,32.43203 L27.0974794,32.43203 Z" id="Shape" sketch:type="MSShapeGroup"></path>
        </g>
    </g>
</svg>