<?xml version="1.0" encoding="UTF-8" standalone="no"?>
<svg width="29px" height="24px" viewBox="0 0 29 24" version="1.1" xmlns="http://www.w3.org/2000/svg" xmlns:xlink="http://www.w3.org/1999/xlink" xmlns:sketch="http://www.bohemiancoding.com/sketch/ns">
    <!-- Generator: Sketch 3.4.4 (17249) - http://www.bohemiancoding.com/sketch -->
    <title>Slice 1</title>
    <desc>Created with Sketch.</desc>
    <defs></defs>
    <g id="Page-1" stroke="none" stroke-width="1" fill="none" fill-rule="evenodd" sketch:type="MSPage">
        <path d="M8.40271662,0 C3.63080348,3.42332899 0,9.23261456 0,15.5605863 C0,20.6437112 3.00838002,23.4446167 6.43170902,23.4446167 C9.54382628,23.4446167 11.9297829,20.9549229 11.9297829,17.9465429 C11.9297829,14.8344256 9.85503801,12.6559436 6.95039523,12.6559436 C6.43170902,12.6559436 5.70554832,12.7596808 5.60181108,12.7596808 C5.91302281,9.44008904 8.92140283,5.29059935 12.2409946,3.11211727 L8.40271662,0 Z M25.0006754,0 C20.2287622,3.42332899 16.5979588,9.23261456 16.5979588,15.5605863 C16.5979588,20.6437112 19.6063388,23.4446167 23.0296678,23.4446167 C26.141785,23.4446167 28.6314789,20.9549229 28.6314789,17.9465429 C28.6314789,14.8344256 26.4529968,12.6559436 23.548354,12.6559436 C23.0296678,12.6559436 22.3035071,12.7596808 22.1997698,12.7596808 C22.6147188,9.44008904 25.5193616,5.29059935 28.8389533,3.11211727 L25.0006754,0 Z" id="“-" fill="#EEEEEE" sketch:type="MSShapeGroup"></path>
    </g>
</svg>