<?xml version="1.0" encoding="UTF-8" standalone="no"?>
<svg width="46px" height="46px" viewBox="0 0 46 46" version="1.1" xmlns="http://www.w3.org/2000/svg" xmlns:xlink="http://www.w3.org/1999/xlink" xmlns:sketch="http://www.bohemiancoding.com/sketch/ns">
    <!-- Generator: Sketch 3.4.4 (17249) - http://www.bohemiancoding.com/sketch -->
    <title>Slice 1</title>
    <desc>Created with Sketch.</desc>
    <defs></defs>
    <g id="Page-1" stroke="none" stroke-width="1" fill="none" fill-rule="evenodd" sketch:type="MSPage">
        <g id="bootstrap-solid" sketch:type="MSLayerGroup">
            <g id="solid" sketch:type="MSShapeGroup">
                <path d="M45.8768742,38.2307285 C45.8768742,42.4361086 42.4361086,45.8768742 38.2307285,45.8768742 L7.64614569,45.8768742 C3.44076556,45.8768742 0,42.4361086 0,38.2307285 L0,7.64614569 C0,3.44076556 3.44076556,0 7.64614569,0 L38.2307285,0 C42.4361086,0 45.8768742,3.44076556 45.8768742,7.64614569 L45.8768742,38.2307285 L45.8768742,38.2307285 Z" id="bg" fill="#B3B3B3"></path>
                <g id="B" transform="translate(12.443727, 9.969974)" fill="#FFFFFF">
                    <path d="M0.0224886638,0 L13.0284326,0 C15.4272234,0 17.3537522,0.547224153 18.8005229,1.64916868 C20.2472936,2.75111321 20.9744271,4.40777811 20.9744271,6.63415582 C20.9744271,7.98347565 20.6445934,9.13789373 19.9849259,10.09741 C19.3252584,11.0569264 18.3807346,11.8065485 17.1513543,12.331284 L17.1513543,12.4062462 C18.8005229,12.7585686 20.0523919,13.5381756 20.8994649,14.7450672 C21.7465379,15.9594551 22.1738225,17.4736918 22.1738225,19.3027698 C22.1738225,20.3522407 21.986417,21.3342457 21.6116059,22.2412885 C21.2367949,23.1558275 20.6520896,23.9429307 19.8499939,24.6025982 C19.0478982,25.2622657 18.0284122,25.7870012 16.7765432,26.1768047 C15.5246742,26.5666082 14.0404224,26.7615099 12.3162915,26.7615099 L0.0224886638,26.7615099 L0.0224886638,0 L0.0224886638,0 L0.0224886638,0 Z M4.70762696,11.2068508 L12.3537727,11.2068508 C13.4782058,11.2068508 14.4152335,10.8920095 15.1648556,10.2473345 C15.9144778,9.60265945 16.2892888,8.68812045 16.2892888,7.48872505 C16.2892888,6.13940522 15.9519589,5.18738512 15.2772989,4.64016097 C14.602639,4.09293681 13.6281303,3.81557663 12.3537727,3.81557663 L4.70762696,3.81557663 L4.70762696,11.2068508 L4.70762696,11.2068508 L4.70762696,11.2068508 Z M4.70762696,22.9384371 L12.9909515,22.9384371 C14.4152335,22.9384371 15.5246742,22.5711222 16.3042813,21.8289963 C17.0913845,21.0943667 17.4886842,20.0448957 17.4886842,18.6955758 C17.4886842,17.3687447 17.0988807,16.3567548 16.3042813,15.6371176 C15.5096818,14.9174803 14.4152335,14.5726541 12.9909515,14.5726541 L4.70762696,14.5726541 L4.70762696,22.9384371 L4.70762696,22.9384371 Z" id="Shape"></path>
                </g>
            </g>
        </g>
    </g>
</svg>