<?xml version="1.0" encoding="UTF-8" standalone="no"?>
<svg width="51px" height="51px" viewBox="0 0 51 51" version="1.1" xmlns="http://www.w3.org/2000/svg" xmlns:xlink="http://www.w3.org/1999/xlink" xmlns:sketch="http://www.bohemiancoding.com/sketch/ns">
    <!-- Generator: Sketch 3.4.4 (17249) - http://www.bohemiancoding.com/sketch -->
    <title>Slice 1</title>
    <desc>Created with Sketch.</desc>
    <defs></defs>
    <g id="Page-1" stroke="none" stroke-width="1" fill="none" fill-rule="evenodd" sketch:type="MSPage">
        <g id="github" sketch:type="MSLayerGroup" fill="#B3B3B3">
            <g id="Group" sketch:type="MSShapeGroup">
                <path d="M25.5594659,0.168709346 C11.5144128,0.168709346 0.0843546728,11.5565902 0.0843546728,25.6438205 C0.0843546728,36.9051694 7.38103387,46.4372474 17.5035946,49.8114343 C18.7689147,50.0644983 19.2328654,49.2631289 19.2328654,48.5882916 C19.2328654,47.9978088 19.1906881,45.9732967 19.1906881,43.8644299 C12.1048956,45.4249913 10.6286888,40.869839 10.6286888,40.869839 C9.48990069,37.9174254 7.80280724,37.1582334 7.80280724,37.1582334 C5.48305373,35.5976719 7.97151658,35.5976719 7.97151658,35.5976719 C10.5443341,35.7663813 11.8940089,38.2126668 11.8940089,38.2126668 C14.171585,42.0929817 17.8410133,40.996371 19.3172201,40.3215336 C19.5281068,38.6766175 20.2029441,37.5378294 20.9199589,36.9051694 C15.2681958,36.2725093 9.32119135,34.0792878 9.32119135,24.3363231 C9.32119135,21.5526189 10.3334474,19.2750427 11.9361862,17.5035946 C11.6831222,16.8709346 10.7973981,14.2559397 12.1892502,10.7552208 C12.1892502,10.7552208 14.3402944,10.0803834 19.1906881,13.3702156 C21.2152002,12.8219103 23.4084217,12.5266689 25.5594659,12.5266689 C27.71051,12.5266689 29.9037315,12.8219103 31.9282437,13.3702156 C36.7786374,10.0803834 38.9296815,10.7552208 38.9296815,10.7552208 C40.3215336,14.2559397 39.4358095,16.8709346 39.1827455,17.5035946 C40.8276617,19.2750427 41.7977404,21.5526189 41.7977404,24.3363231 C41.7977404,34.1214652 35.850736,36.2725093 30.1567955,36.9051694 C31.0846969,37.7065388 31.8860663,39.2249229 31.8860663,41.629031 C31.8860663,45.0453953 31.843889,47.7869222 31.843889,48.6304689 C31.843889,49.3053063 32.3078397,50.1066757 33.5731598,49.8536116 C43.6957205,46.4794247 50.9923997,36.9473467 50.9923997,25.6859979 C51.0345771,11.5987675 39.6466962,0.168709346 25.5594659,0.168709346 L25.5594659,0.168709346 Z" id="Shape"></path>
                <path d="M9.74296471,36.73646 C9.70078738,36.862992 9.48990069,36.9051694 9.32119135,36.8208147 C9.152482,36.73646 9.02594999,36.5677507 9.11030467,36.4412187 C9.152482,36.3146867 9.36336868,36.2725093 9.53207803,36.356864 C9.70078738,36.4412187 9.78514205,36.609928 9.74296471,36.73646 L9.74296471,36.73646 L9.74296471,36.73646 Z" id="Shape"></path>
                <path d="M10.7552208,37.9174254 C10.6286888,38.0439574 10.3756248,37.9596028 10.2490927,37.7908934 C10.0803834,37.6221841 10.0382061,37.3691201 10.1647381,37.2425881 C10.2912701,37.116056 10.5021568,37.2004107 10.6708661,37.3691201 C10.8817528,37.5378294 10.8817528,37.7908934 10.7552208,37.9174254 L10.7552208,37.9174254 L10.7552208,37.9174254 Z" id="Shape"></path>
                <path d="M11.7674769,39.3514549 C11.5987675,39.4779869 11.3457035,39.3514549 11.2191715,39.1405682 C11.0504621,38.9296815 11.0504621,38.6344402 11.2191715,38.5500855 C11.3878808,38.4235535 11.6409449,38.5500855 11.7674769,38.7609722 C11.9361862,38.9718588 11.9361862,39.2671002 11.7674769,39.3514549 L11.7674769,39.3514549 L11.7674769,39.3514549 Z" id="Shape"></path>
                <path d="M13.159329,40.7854843 C13.032797,40.9541937 12.7375556,40.9120163 12.4844916,40.7011296 C12.2736049,40.490243 12.1892502,40.1950016 12.3579596,40.0684696 C12.4844916,39.8997602 12.7797329,39.9419376 13.032797,40.1528243 C13.2436836,40.3215336 13.285861,40.616775 13.159329,40.7854843 L13.159329,40.7854843 L13.159329,40.7854843 Z" id="Shape"></path>
                <path d="M15.0573091,41.629031 C15.0151318,41.8399177 14.7198904,41.9242724 14.4246491,41.8399177 C14.1294077,41.7555631 13.9606984,41.502499 14.0028757,41.3337897 C14.045053,41.122903 14.3402944,41.0385483 14.6355357,41.122903 C14.9307771,41.1650803 15.0994864,41.4181444 15.0573091,41.629031 L15.0573091,41.629031 L15.0573091,41.629031 Z" id="Shape"></path>
                <path d="M17.1239986,41.7555631 C17.1239986,41.9664497 16.8709346,42.1351591 16.5756932,42.1351591 C16.2804519,42.1351591 16.0273878,41.9664497 16.0273878,41.7555631 C16.0273878,41.5446764 16.2804519,41.375967 16.5756932,41.375967 C16.8709346,41.375967 17.1239986,41.5446764 17.1239986,41.7555631 L17.1239986,41.7555631 L17.1239986,41.7555631 Z" id="Shape"></path>
                <path d="M19.0641561,41.4181444 C19.1063334,41.629031 18.8954467,41.8399177 18.6002054,41.8820951 C18.304964,41.9242724 18.0519,41.7977404 18.0097226,41.5868537 C17.9675453,41.375967 18.178432,41.1650803 18.4736733,41.122903 C18.7689147,41.0807257 19.0219787,41.2072577 19.0641561,41.4181444 L19.0641561,41.4181444 L19.0641561,41.4181444 Z" id="Shape"></path>
            </g>
        </g>
    </g>
</svg>