<?xml version="1.0" encoding="UTF-8" standalone="no"?>
<svg width="55px" height="61px" viewBox="0 0 55 61" version="1.1" xmlns="http://www.w3.org/2000/svg" xmlns:xlink="http://www.w3.org/1999/xlink" xmlns:sketch="http://www.bohemiancoding.com/sketch/ns">
    <!-- Generator: Sketch 3.4.4 (17249) - http://www.bohemiancoding.com/sketch -->
    <title>Slice 1</title>
    <desc>Created with Sketch.</desc>
    <defs></defs>
    <g id="Page-1" stroke="none" stroke-width="1" fill="none" fill-rule="evenodd" sketch:type="MSPage">
        <g id="heroku" sketch:type="MSLayerGroup" fill="#B3B3B3">
            <g id="Page-1" sketch:type="MSShapeGroup">
                <g id="inicio">
                    <g id="technologies">
                        <g id="heroku">
                            <path d="M5.5,0 C2.5,0 0,2.4 0,5.5 L0,55.4 C0,58.4 2.5,60.9 5.5,60.9 L49.5,60.9 C52.6,60.9 55,58.5 55,55.4 L55,5.5 C55,2.5 52.5,0 49.5,0 L5.5,0 L5.5,0 Z M51.9,55.3 C51.9,56.7 50.8,57.7 49.4,57.7 L5.4,57.7 C4,57.7 2.9,56.6 2.9,55.3 L2.9,5.5 C3.1,4.1 4.1,3 5.5,3 L49.5,3 C50.9,3 52,4.1 52,5.4 L52,55.3 L51.9,55.3 L51.9,55.3 Z M13.8,51.7 L20.7,45.6 L13.8,39.5 L13.8,51.7 L13.8,51.7 L13.8,51.7 Z M38.6,27.1 C37.4,25.9 35.1,24.4 31.2,24.4 C27.1,24.4 22.8,25.5 19.7,26.5 L19.7,9.1 L13.6,9.1 L13.6,35.4 L17.9,33.4 C17.9,33.4 24.9,30.2 31.1,30.2 C34.2,30.2 34.9,31.9 34.9,33.4 L34.9,51.6 L41,51.6 L41,33.4 C41.2,33 41.2,29.6 38.6,27.1 L38.6,27.1 L38.6,27.1 Z M30.5,19 L36.6,19 C39.4,15.8 40.7,12.6 41.2,9.1 L35.1,9.1 C34.5,12.6 32.9,15.8 30.5,19 L30.5,19 L30.5,19 Z" id="Shape"></path>
                        </g>
                    </g>
                </g>
            </g>
        </g>
    </g>
</svg>