<?xml version="1.0" encoding="UTF-8" standalone="no"?>
<svg width="41px" height="58px" viewBox="0 0 41 58" version="1.1" xmlns="http://www.w3.org/2000/svg" xmlns:xlink="http://www.w3.org/1999/xlink" xmlns:sketch="http://www.bohemiancoding.com/sketch/ns">
    <!-- Generator: Sketch 3.4.4 (17249) - http://www.bohemiancoding.com/sketch -->
    <title>Slice 1</title>
    <desc>Created with Sketch.</desc>
    <defs></defs>
    <g id="Page-1" stroke="none" stroke-width="1" fill="none" fill-rule="evenodd" sketch:type="MSPage">
        <g id="html5" sketch:type="MSLayerGroup" fill="#B3B3B3">
            <g id="Group" transform="translate(3.786177, 0.000000)" sketch:type="MSShapeGroup">
                <path d="M0.0488538971,0.0366404228 L2.65032392,0.0366404228 L2.65032392,2.60147002 L5.0319514,2.60147002 L5.0319514,0.0366404228 L7.63342142,0.0366404228 L7.63342142,7.81662354 L5.0319514,7.81662354 L5.0319514,5.21515352 L2.65032392,5.21515352 L2.65032392,7.81662354 L0.0488538971,7.81662354 C0.0488538971,7.81662354 0.0488538971,0.0366404228 0.0488538971,0.0366404228 L0.0488538971,0.0366404228 Z" id="Shape"></path>
                <path d="M11.0531942,2.6136835 L8.75706106,2.6136835 L8.75706106,0.0366404228 L15.9385839,0.0366404228 L15.9385839,2.6136835 L13.6424508,2.6136835 L13.6424508,7.81662354 L11.0409807,7.81662354 L11.0531942,2.6136835 L11.0531942,2.6136835 L11.0531942,2.6136835 Z" id="Shape"></path>
                <path d="M17.0866505,0.0366404228 L19.7980418,0.0366404228 L21.4712878,2.77245866 L23.1323203,0.0366404228 L25.8437116,0.0366404228 L25.8437116,7.81662354 L23.254455,7.81662354 L23.254455,3.96937914 L21.4590743,6.7418378 L21.4102204,6.7418378 L19.6148397,3.96937914 L19.6148397,7.81662354 L17.074437,7.81662354 L17.074437,0.0366404228 L17.0866505,0.0366404228 Z" id="Shape"></path>
                <path d="M27.1383398,0.0366404228 L29.7398099,0.0366404228 L29.7398099,5.25179394 L33.4038522,5.25179394 L33.4038522,7.81662354 L27.1383398,7.81662354 L27.1383398,0.0366404228 L27.1383398,0.0366404228 Z" id="Shape"></path>
            </g>
            <path d="M0.08549432,11.2363963 L3.81060398,52.969838 L20.5186368,57.6109582 L37.2388831,52.9820514 L40.9517793,11.2363963 L0.08549432,11.2363963 L0.08549432,11.2363963 Z M10.0272624,45.8493824 L9.29445393,37.6297143 L14.4363266,37.6297143 L14.8149443,41.8922168 L20.5186368,43.4311145 L20.5308503,43.4311145 L20.5308503,43.4311145 L26.2345428,41.8922168 L26.833003,35.2480868 L20.5186368,35.2480868 L20.5186368,35.2480868 L9.07461139,35.2480868 L7.6944888,19.7614014 L20.5186368,19.7614014 L33.3427848,19.7614014 L32.8786728,24.8788471 L20.5186368,24.8788471 L13.28826,24.8788471 L13.752372,30.1184276 L20.5186368,30.1184276 L20.5186368,30.1184276 L32.4145607,30.1184276 L31.0100112,45.837169 L20.5186368,48.7561893 L20.5064233,48.7561893 L10.0272624,45.8493824 L10.0272624,45.8493824 Z" id="Shape" sketch:type="MSShapeGroup"></path>
        </g>
    </g>
</svg>