<?xml version="1.0" encoding="UTF-8" standalone="no"?>
<svg width="70px" height="70px" viewBox="0 0 70 70" version="1.1" xmlns="http://www.w3.org/2000/svg" xmlns:xlink="http://www.w3.org/1999/xlink" xmlns:sketch="http://www.bohemiancoding.com/sketch/ns">
    <!-- Generator: Sketch 3.4.4 (17249) - http://www.bohemiancoding.com/sketch -->
    <title>Slice 1</title>
    <desc>Created with Sketch.</desc>
    <defs></defs>
    <g id="Page-1" stroke="none" stroke-width="1" fill="none" fill-rule="evenodd" sketch:type="MSPage">
        <g id="ionic" sketch:type="MSLayerGroup" fill="#B3B3B3">
            <g id="Page-1" sketch:type="MSShapeGroup">
                <g id="inicio">
                    <g id="ionic">
                        <g id="Oval" transform="translate(21.000000, 21.000000)">
                            <circle cx="14" cy="14" r="13.9"></circle>
                        </g>
                        <path d="M63.3,11.5 C63.3,8.9 61.2,6.7 58.5,6.7 C57.3,6.7 56.2,7.1 55.4,7.9 C49.7,3.6 42.7,1 35,1 C16.3,1 1,16.3 1,35 C1,53.7 16.2,69 35,69 C53.8,69 69,53.8 69,35 C69,27.3 66.5,20.3 62.2,14.6 C62.9,13.8 63.3,12.7 63.3,11.5 L63.3,11.5 L63.3,11.5 Z M2.2,35 C2.2,16.9 16.9,2.2 35,2.2 C42.4,2.2 49.2,4.6 54.6,8.7 C54,9.5 53.7,10.4 53.7,11.5 C53.7,14.1 55.8,16.3 58.5,16.3 C59.5,16.3 60.5,16 61.3,15.4 C65.4,20.9 67.8,27.7 67.8,35 C67.8,53.1 53.1,67.8 35,67.8 C16.9,67.8 2.2,53.1 2.2,35 Z" id="Shape"></path>
                        <path d="M35,69.5 C16,69.5 0.5,54 0.5,35 C0.5,16 16,0.5 35,0.5 C42.4,0.5 49.5,2.8 55.4,7.2 C56.3,6.5 57.4,6.2 58.5,6.2 C61.4,6.2 63.8,8.6 63.8,11.5 C63.8,12.6 63.4,13.7 62.8,14.6 C67.2,20.6 69.5,27.6 69.5,35 C69.5,54 54,69.5 35,69.5 L35,69.5 Z M35,1.5 C16.6,1.5 1.5,16.5 1.5,35 C1.5,53.5 16.5,68.5 35,68.5 C53.5,68.5 68.5,53.5 68.5,35 C68.5,27.7 66.2,20.7 61.8,14.9 L61.6,14.6 L61.9,14.3 C62.6,13.5 62.9,12.5 62.9,11.5 C62.9,9.1 61,7.2 58.6,7.2 C57.6,7.2 56.6,7.6 55.8,8.2 L55.5,8.5 L55.2,8.3 C49.3,3.9 42.3,1.5 35,1.5 L35,1.5 Z M35,68.3 C16.6,68.3 1.7,53.3 1.7,35 C1.7,16.7 16.6,1.7 35,1.7 C42.3,1.7 49.2,4 55,8.3 L55.4,8.6 L55.1,9 C54.6,9.7 54.3,10.6 54.3,11.5 C54.3,13.9 56.2,15.8 58.6,15.8 C59.5,15.8 60.3,15.5 61.1,15 L61.5,14.7 L61.8,15.1 C66.1,20.9 68.4,27.8 68.4,35 C68.3,53.4 53.4,68.3 35,68.3 L35,68.3 Z M35,2.7 C17.2,2.7 2.7,17.2 2.7,35 C2.7,52.8 17.2,67.3 35,67.3 C52.8,67.3 67.3,52.8 67.3,35 C67.3,28.1 65.2,21.6 61.1,16 C60.3,16.5 59.4,16.7 58.5,16.7 C55.6,16.7 53.2,14.3 53.2,11.4 C53.2,10.5 53.4,9.6 53.9,8.8 C48.4,4.8 41.9,2.7 35,2.7 L35,2.7 Z" id="Shape"></path>
                    </g>
                </g>
            </g>
        </g>
    </g>
</svg>