<?xml version="1.0" encoding="UTF-8" standalone="no"?>
<svg width="45px" height="45px" viewBox="0 0 45 45" version="1.1" xmlns="http://www.w3.org/2000/svg" xmlns:xlink="http://www.w3.org/1999/xlink" xmlns:sketch="http://www.bohemiancoding.com/sketch/ns">
    <!-- Generator: Sketch 3.4.4 (17249) - http://www.bohemiancoding.com/sketch -->
    <title>Slice 1</title>
    <desc>Created with Sketch.</desc>
    <defs></defs>
    <g id="Page-1" stroke="none" stroke-width="1" fill="none" fill-rule="evenodd" sketch:type="MSPage">
        <g id="javascript" sketch:type="MSLayerGroup">
            <rect id="Rectangle-path" fill="#B3B3B3" sketch:type="MSShapeGroup" x="0" y="0" width="44.8560001" height="44.8560001"></rect>
            <path d="M30.1318401,35.0446401 C31.0360801,36.5184801 32.2108801,37.6078401 34.2899201,37.6078401 C36.0343201,37.6078401 37.1521601,36.7320801 37.1521601,35.5288001 C37.1521601,34.0834401 36.0058401,33.5708001 34.0834401,32.7306401 L33.0296801,32.2749601 C29.9894401,30.9791201 27.9673601,29.3557601 27.9673601,25.9239201 C27.9673601,22.7626401 30.3739201,20.3560801 34.1404001,20.3560801 C36.8175201,20.3560801 38.7470401,21.2888001 40.1354401,23.7309601 L36.8531201,25.8384801 C36.1340001,24.5426401 35.3508001,24.0300001 34.1404001,24.0300001 C32.9086401,24.0300001 32.1254401,24.8132001 32.1254401,25.8384801 C32.1254401,27.1058401 32.9086401,27.6184801 34.7171201,28.4016801 L35.7708801,28.8502401 C39.3522401,30.3881601 41.3743201,31.9545601 41.3743201,35.4718401 C41.3743201,39.2668001 38.3910401,41.3458401 34.3896001,41.3458401 C30.4736001,41.3458401 27.9460001,39.4804001 26.7071201,37.0382401 L30.1318401,35.0446401 L30.1318401,35.0446401 Z M15.24392,35.4077601 C15.90608,36.5825601 16.5112801,37.5793601 17.9566401,37.5793601 C19.3450401,37.5793601 20.2136801,37.0382401 20.2136801,34.9307201 L20.2136801,20.5981601 L24.4287201,20.5981601 L24.4287201,34.9876801 C24.4287201,39.3522401 21.8726401,41.3387201 18.1346401,41.3387201 C14.75976,41.3387201 12.80176,39.5943201 11.81208,37.4868001 L15.24392,35.4077601 L15.24392,35.4077601 Z" id="Shape" fill="#FFFFFF" sketch:type="MSShapeGroup"></path>
        </g>
    </g>
</svg>