<?xml version="1.0" encoding="UTF-8" standalone="no"?>
<svg width="70px" height="20px" viewBox="0 0 70 20" version="1.1" xmlns="http://www.w3.org/2000/svg" xmlns:xlink="http://www.w3.org/1999/xlink" xmlns:sketch="http://www.bohemiancoding.com/sketch/ns">
    <!-- Generator: Sketch 3.4.4 (17249) - http://www.bohemiancoding.com/sketch -->
    <title>Slice 1</title>
    <desc>Created with Sketch.</desc>
    <defs></defs>
    <g id="Page-1" stroke="none" stroke-width="1" fill="none" fill-rule="evenodd" sketch:type="MSPage">
        <g id="jquery" sketch:type="MSLayerGroup">
            <path id="Shape" fill="#000000" sketch:type="MSShapeGroup" d="M59.4482176,5.35845846 L59.5564693,5.84559105 C59.5925532,5.98992663 59.5023434,6.09817831 59.3580078,6.09817831"></path>
            <path d="M50.2468243,4.52852887 C50.2107404,4.6548225 50.1746565,4.83524198 50.1566145,4.94349366 L49.1462655,9.67048395 L50.2107404,4.69090639 L50.2468243,4.52852887 L50.2468243,4.52852887 Z" id="Shape" fill="#B3B3B3" sketch:type="MSShapeGroup"></path>
            <path d="M20.00852,7.68586971 L19.4672615,9.67048395 L20.00852,7.68586971 L20.00852,7.68586971 Z" id="Shape" fill="#B3B3B3" sketch:type="MSShapeGroup"></path>
            <path d="M59.5564693,5.84559105 L59.2677981,4.6187386 C59.0332528,3.73468317 58.3837427,3.30167642 56.9223449,3.30167642 L50.7700407,3.30167642 C50.6257052,3.30167642 50.4813696,3.37384421 50.4633276,3.50013785 L48.1359164,14.5598518 C48.0998325,14.7041874 48.0998325,14.7943971 48.1178744,14.8665649 C48.1359164,14.9387327 48.4065456,14.9206907 48.5508812,14.9206907 L50.679831,14.9206907 C50.8241666,14.9206907 51.0767539,14.9387327 51.1489217,14.9026488 C51.2210894,14.8665649 51.2571733,14.6681035 51.2932572,14.5237679 L52.051019,10.6447491 L52.9711584,6.35076558 C53.0072423,6.20643 53.1335359,6.09817831 53.2778715,6.09817831 L59.3580078,6.09817831 C59.5023434,6.09817831 59.5925532,5.98992663 59.5564693,5.84559105" id="Shape" fill="#B3B3B3" sketch:type="MSShapeGroup"></path>
            <path d="M68.2166041,1.37118802 L65.510312,1.37118802 C65.3659764,1.37118802 65.1855569,1.5155236 65.1133891,1.64181724 L60.3683569,8.60600904 C60.2961891,8.71426073 60.1879374,8.71426073 60.1698955,8.58796709 L59.8270985,7.05440154 C59.7910146,6.91006596 59.664721,6.80181427 59.5203854,6.80181427 L56.4712962,6.80181427 C56.3269606,6.80181427 56.2547928,6.91006596 56.2908767,7.05440154 L57.6620648,11.8355177 C57.6981487,11.9798533 57.6981487,12.1963566 57.6620648,12.3406922 L57.0305966,14.7583132 C56.9945127,14.9026488 57.0847224,14.9387327 57.229058,14.9387327 L60.2420633,14.9387327 C60.3863989,14.9387327 60.5307344,14.9026488 60.5668183,14.7583132 L61.1982865,12.3046083 C61.2343704,12.1602727 61.3245801,11.9798533 61.4147899,11.8716016 L69.1547854,1.62377529 C69.2449952,1.5155236 69.2269532,1.37118802 69.0826176,1.37118802 L68.2166041,1.37118802 L68.2166041,1.37118802 Z" id="Shape" fill="#B3B3B3" sketch:type="MSShapeGroup"></path>
            <path d="M36.5169021,3.31971837 L33.774526,3.31971837 C33.6301905,3.31971837 33.4858549,3.37384421 33.4678129,3.50013785 L32.5657155,7.7580375 L31.6636182,11.8355177 C31.6275343,11.9798533 31.5012406,11.9618113 31.3569051,11.9618113 L29.5527103,11.9618113 C27.7665575,11.9618113 27.9650189,10.8251686 28.3438998,9.14726747 C28.3438998,9.12922552 29.4985844,3.5181798 29.4985844,3.5181798 C29.5166264,3.37384421 29.4264167,3.33776032 29.300123,3.33776032 L26.6840406,3.33776032 C26.539705,3.33776032 26.3953694,3.39188616 26.3773275,3.5181798 L25.3308945,9.14726747 C24.807678,12.1783147 24.7896361,14.8665649 28.3078159,14.9567746 L33.8827777,14.9567746 C34.0271133,14.9567746 34.1714489,14.9026488 34.1894908,14.7763551 L35.3802594,9.12922552 L36.5710279,3.46405395 C36.5169021,3.44601201 36.5710279,3.31971837 36.5169021,3.31971837 L36.5169021,3.31971837 Z" id="Shape" fill="#B3B3B3" sketch:type="MSShapeGroup"></path>
            <path d="M9.14726747,3.30167642 L6.20643,3.30167642 C6.06209442,3.30167642 5.91775884,3.33776032 5.89971689,3.4820959 L5.37650041,5.77342326 C5.34041651,5.91775884 5.43062625,6.02601052 5.57496183,6.02601052 L8.38950567,6.02601052 C8.53384125,6.02601052 8.67817683,5.89971689 8.69621878,5.75538131 L9.20139331,3.44601201 C9.20139331,3.44601201 9.23747721,3.30167642 9.14726747,3.30167642 L9.14726747,3.30167642 Z" id="Shape" fill="#B3B3B3" sketch:type="MSShapeGroup"></path>
            <path d="M5.35845846,6.80181427 C5.21412288,6.80181427 5.0697873,6.91006596 5.05174535,7.05440154 L4.6548225,8.80447046 L3.77076706,12.8639087 C3.77076706,12.8639087 3.30167642,15.0109005 3.24755058,15.155236 C3.24755058,15.155236 2.85062773,16.7068435 1.89440451,16.6527177 C1.46139776,16.6166338 0.956223227,16.5264241 0.956223227,16.5264241 L0.956223227,16.5264241 C0.685594012,16.4542563 0.667552064,16.7248855 0.631468169,16.8511791 L0.054125843,19.3770518 C0.0180419477,19.5213874 0.108251686,19.647681 0.252587267,19.647681 C0.252587267,19.647681 1.5155236,19.8281005 2.41762099,19.8281005 L2.56195657,19.8281005 C4.78111613,19.8281005 5.93580078,18.5290803 6.69356259,14.9928585 L7.57761802,10.8973364 L8.40754762,7.09048544 C8.44363151,6.94614985 8.35342177,6.81985622 8.20908619,6.81985622" id="Shape" fill="#B3B3B3" sketch:type="MSShapeGroup"></path>
            <path d="M43.4630519,3.28363448 C38.5015163,3.28363448 37.3287897,6.35076558 36.6612377,9.38181279 C36.0117276,12.4850278 36.0658534,14.9206907 41.1897665,14.9206907 L41.370186,14.9206907 L45.8806729,14.9206907 C46.0250085,14.9206907 46.1513021,14.7943971 46.187386,14.6500615 L46.6925606,12.6834892 C46.7286445,12.5391536 46.6203928,12.5030697 46.4940992,12.5030697 L41.8753605,12.5030697 C40.1974594,12.5030697 39.6020751,11.9798533 39.656201,10.8251686 C39.656201,10.698875 39.8005366,10.356078 39.9448721,10.356078 L47.0533995,10.356078 C47.3601126,10.356078 47.3781546,10.1756585 47.3781546,10.1756585 C48.1178744,6.92810791 48.1539583,3.28363448 43.4630519,3.28363448 M44.7801141,8.15496035 C44.7801141,8.31733788 44.2929815,8.28125398 44.2929815,8.28125398 L40.4320047,8.24517009 C40.3057111,8.24517009 40.2515853,8.06475061 40.2515853,7.92041503 C40.2515853,7.92041503 40.2696272,7.7580375 40.2696272,7.7219536 C40.5763403,6.69356259 41.4603958,6.09817831 42.8676677,6.09817831 C44.4553591,6.09817831 44.7981561,6.89202401 44.7981561,7.7580375" id="Shape" fill="#B3B3B3" sketch:type="MSShapeGroup"></path>
            <path d="M22.0472601,11.727266 C22.0472601,11.727266 23.43649,8.35342177 23.7432031,6.40489142 C24.1762099,3.78880901 22.8771896,0.0180419477 17.8254443,0.0180419477 C12.8097828,0.0180419477 10.6447491,3.62643148 9.79677759,7.55957607 C8.96684799,11.5107626 10.0493649,14.9567746 15.0469844,14.9206907 L22.6606863,14.9206907 C22.8050219,14.9206907 22.9493574,14.812439 22.9854413,14.6681035 L23.6349515,12.2324405 C23.6710353,12.0881049 23.5808256,11.9798533 23.43649,11.9798533 L22.8230638,11.9798533 L22.2096376,11.9798533 C22.083344,11.9798533 22.0111762,11.9076855 22.0292181,11.7994338 C22.0472601,11.7813918 22.0472601,11.7633499 22.0472601,11.727266 L22.0472601,11.727266 Z M19.4311776,9.67048395 L18.8538353,11.6190143 C18.8177514,11.7633499 18.6553739,11.8535596 18.5110383,11.8535596 L15.5702008,11.8535596 C13.3329993,11.8535596 12.7917409,10.1215326 13.3329993,7.54153413 C13.8742578,4.90740977 14.9567746,3.28363448 17.1578922,3.103215 C20.1708975,2.86866968 20.7843237,4.99761951 20.0446039,7.43328244 L19.4311776,9.67048395 L19.4311776,9.67048395 Z" id="Shape" fill="#B3B3B3" sketch:type="MSShapeGroup"></path>
        </g>
    </g>
</svg>