<?xml version="1.0" encoding="UTF-8" standalone="no"?>
<svg width="55px" height="57px" viewBox="0 0 55 57" version="1.1" xmlns="http://www.w3.org/2000/svg" xmlns:xlink="http://www.w3.org/1999/xlink" xmlns:sketch="http://www.bohemiancoding.com/sketch/ns">
    <!-- Generator: Sketch 3.4.4 (17249) - http://www.bohemiancoding.com/sketch -->
    <title>Slice 1</title>
    <desc>Created with Sketch.</desc>
    <defs></defs>
    <g id="Page-1" stroke="none" stroke-width="1" fill="none" fill-rule="evenodd" sketch:type="MSPage">
        <g id="PostgreSQL" sketch:type="MSLayerGroup" fill="#B3B3B3">
            <g id="Group" transform="translate(0.317364, 0.508694)" sketch:type="MSShapeGroup">
                <path d="M29.4444903,32.6968782 C29.5482899,32.6968782 29.6520895,32.731478 29.7558891,32.7660779 C29.6520895,32.3854793 29.51369,31.935681 29.3406907,31.4858827 C28.8908924,30.2402873 29.2022912,30.8976849 28.4756939,29.3406907 C27.5068975,27.1954987 26.2613022,24.427509 27.645297,18.0265328 C28.0258956,16.2273395 29.0292918,15.293143 30.3094871,14.9125444 C31.1052841,14.6703453 32.0048808,14.6357455 32.9044774,14.774145 C33.7694742,14.9125444 34.5998711,15.1547435 35.3610682,15.4661424 C35.8454664,15.6737416 36.3298646,15.9159407 36.7104632,16.1581398 C36.3990644,12.4213537 34.7728704,3.49458698 25.8461037,3.66758634 C18.4417313,3.77138595 14.2551469,8.64996777 12.352154,12.1445548 C11.8677558,13.0095515 11.5217571,13.8053486 11.3141578,14.3935464 C11.279558,14.4281462 11.279558,14.497346 11.279558,14.5319459 C15.6737416,14.0821475 17.4037352,15.6045419 17.7843337,17.8881334 C18.3033318,21.1405212 15.6737416,25.8461037 14.3243466,28.2334948 C14.0129478,28.7870927 13.7707487,29.2368911 13.7015489,29.4098904 C13.1825509,30.6900857 12.5251533,31.5204826 12.0061553,32.1432802 C11.8331559,32.3508795 11.6947564,32.5238788 11.5909568,32.6968782 C12.5943531,32.9736771 14.0475477,33.5272751 13.9091482,36.4682641 C13.9783479,37.3332609 14.2551469,39.7898517 14.5665457,42.1772429 C14.8087448,44.1148356 15.0855438,46.0870283 15.2585431,47.228824 C15.5353421,48.7858182 15.9505406,49.8930141 16.7117377,50.6542113 C17.4729349,51.4500083 18.6147306,51.9690064 20.3101243,52.3150051 C22.2477171,52.7302035 23.4587126,52.3150051 24.2545096,51.6576075 C25.0849065,50.9656101 25.500105,49.9622138 25.776904,49.3048163 C26.0191031,48.6474187 26.2267023,46.9520251 26.3305019,44.6338337 C26.4343015,42.3156423 26.4689014,39.4784529 26.3997016,36.6066636 C26.3997016,35.9838659 26.3651018,35.430268 26.572701,34.8420702 C26.8149001,34.2192725 27.2300985,33.6310747 27.7144967,33.2504761 C28.1988949,32.8698775 28.8908924,32.6622783 29.4444903,32.6968782 L29.4444903,32.6968782 Z" id="Shape"></path>
                <path d="M30.7592854,35.6378672 C30.4132867,35.1880689 30.067288,34.8074703 29.6520895,34.3922719 C29.51369,34.2538724 29.4098904,34.2538724 29.3060908,34.2192725 C29.0984916,34.1846726 28.7870927,34.3230721 28.6140934,34.4614716 C28.3718943,34.634471 28.1642951,34.9458698 28.0258956,35.2918685 C27.922096,35.6378672 27.8528962,36.0876655 28.0950953,36.3990644 C29.2022912,37.9214587 30.5516862,38.5788563 31.7972815,38.7864555 C33.0774768,38.9940547 34.2884722,38.7864555 35.0150695,38.6134561 C35.3610682,38.5096565 35.7762667,38.3366572 36.0530657,38.1636578 C35.8454664,38.0598582 35.4648679,37.9560586 34.9458698,37.8176591 C32.0048808,37.2294613 31.7280818,36.8488627 30.7592854,35.6378672 L30.7592854,35.6378672 Z" id="Shape"></path>
                <path d="M11.0719587,34.1500728 C10.9335593,34.1154729 10.7951598,34.080873 10.6913602,34.0462731 C8.857567,35.430268 5.77817847,34.8420702 3.77138595,34.4614716 C4.25578414,34.9112699 5.05158118,35.4648679 5.9857777,35.8800663 C6.88537435,36.2952648 8.33856893,36.5720637 9.6879639,36.6758634 C10.4491611,36.7104632 11.1757584,36.7104632 11.7293563,36.5720637 C12.075355,36.502864 12.3175541,36.4336643 12.3867538,36.3644645 C12.4559536,34.5306713 11.6255567,34.2884722 11.0719587,34.1500728 L11.0719587,34.1500728 Z" id="Shape"></path>
                <path d="M11.9023557,29.6520895 C12.0407551,29.4098904 12.1791546,29.0984916 12.3175541,28.8216926 C12.4213537,28.5448936 12.6981527,28.0950953 13.0095515,27.4722976 C14.2551469,25.223306 16.7117377,20.8291224 16.2965393,18.0957326 C16.0543402,16.5733382 14.6703453,15.6045419 11.1411585,16.0543402 C11.1411585,16.8501372 11.2449581,17.5421346 11.3833576,18.2687319 C11.4871572,19.064529 11.6255567,19.860326 11.6601566,20.8291224 C11.6947564,21.7633189 11.5563569,22.7321153 11.4525573,23.7355116 C11.2103582,25.6385045 10.9681591,27.6798969 11.9023557,29.6520895 L11.9023557,29.6520895 Z M13.0441514,16.7463376 C13.2863505,16.6771379 13.5977493,16.6771379 13.943748,16.7117377 C14.2897468,16.7809375 14.6011456,16.8501372 14.8087448,16.9885367 C15.0509439,17.1269362 15.1547435,17.2999355 15.1547435,17.4729349 C15.1547435,17.715134 14.9125444,17.9573331 14.6011456,18.1303324 C14.3243466,18.2687319 14.0475477,18.3379317 13.8053486,18.3033318 C13.4593499,18.2687319 13.147951,18.0957326 12.871152,17.8189336 C12.6635528,17.5767345 12.5251533,17.2999355 12.5251533,17.1615361 C12.5943531,16.9539368 12.7673524,16.8155373 13.0441514,16.7463376 L13.0441514,16.7463376 Z" id="Shape"></path>
                <path d="M10.8297596,31.1744838 C10.8643595,31.139884 10.8989594,31.1052841 10.8989594,31.0706842 C9.30736532,28.441094 9.61876416,25.9153034 9.89556313,23.5625122 C9.99936274,22.6283157 10.1031624,21.728719 10.1031624,20.8983221 C10.0685625,19.9987255 9.96476287,19.2375283 9.82636339,18.510931 C9.6879639,17.5767345 9.54956442,16.642538 9.58416429,15.569942 L9.58416429,15.5007422 C9.54956442,15.2239433 9.65336403,14.6357455 9.89556313,13.9091482 C10.1377622,13.2517506 10.4837609,12.3867538 11.0373589,11.4525573 C12.4905535,8.78836726 15.1547435,5.43217976 19.3759278,3.56378672 C17.3345354,3.14858827 14.0821475,2.80258956 10.8297596,3.73678608 C8.51156829,4.39418363 6.2279768,5.7435786 4.32498389,8.13096971 C3.21778801,9.54956442 3.42538724,13.4593499 4.77478221,18.2341321 C5.91657796,22.3861166 7.92337048,27.1608988 10.6913602,31.4858827 C10.6913602,31.3474832 10.7605599,31.2436836 10.8297596,31.1744838 L10.8297596,31.1744838 Z" id="Shape"></path>
                <path d="M32.8006778,2.35279123 C32.0048808,1.86839304 31.139884,1.48779446 30.1364877,1.21099549 C28.8562925,0.830396906 27.4030979,0.62279768 25.8115038,0.657397551 C25.0157068,0.657397551 24.2199098,0.726597293 23.3895129,0.795797035 C22.801315,0.864996777 22.2477171,0.934196519 21.728719,1.03799613 C19.7911263,0.484398195 15.2585431,-0.518998066 10.6913602,0.588197808 C7.57737177,1.3147951 4.39418363,2.97558891 1.7991933,6.26257667 C0.103799613,8.44236854 0.103799613,13.3901501 1.69539368,19.0991288 C2.83718943,23.2165135 4.74018234,27.8874961 7.36977254,32.21248 C6.78157473,32.0740805 5.84737821,31.8664813 4.39418363,31.5550824 C3.25238788,31.3128833 2.35279123,31.4166829 1.72999355,31.7280818 C0.62279768,32.2816797 0.138399484,33.1466765 0.207599227,34.3230721 C0.242199098,34.9112699 0.484398195,35.4994677 0.864996777,36.0530657 C1.52239433,36.9526623 2.94098904,38.0598582 4.63638273,38.8556552 C5.46677963,39.2362538 6.53937564,39.5130528 7.64657151,39.720652 C8.75376738,39.8936514 9.930163,39.997451 10.8989594,39.9282512 L11.002759,39.9282512 L11.3833576,39.8936514 C11.3833576,39.997451 11.4179575,40.0666507 11.4179575,40.1704503 C11.4525573,40.3780496 11.4525573,40.4818492 11.4525573,40.5856488 C11.5909568,46.3638273 12.5251533,49.6854149 13.9783479,51.7614071 C15.6391417,54.1487982 17.7497339,54.8061958 20.1025251,55.290594 C26.1575025,56.5707892 27.4030979,52.6956037 28.1296952,50.5158118 C28.1642951,50.3774123 28.1988949,50.2736127 28.2680947,50.1698131 C28.5794935,49.3394162 28.7870927,48.30142 28.8908924,47.0904245 C29.0292918,45.9486288 29.0638917,44.8068331 29.1330915,43.6304374 C29.1676913,43.2844387 29.1676913,42.8000405 29.1676913,42.3156423 C29.1676913,41.9696436 29.1676913,41.6582448 29.1330915,41.3468459 C29.8250889,41.6582448 30.5516862,41.865844 31.2436836,41.9696436 C33.0774768,42.2810425 34.7382706,42.0042435 35.7416668,41.7274445 C36.5720637,41.5198453 37.6446597,41.0354471 38.3020573,40.4126494 C38.4058569,40.3088498 38.5096565,40.2050502 38.6134561,40.1012506 C39.1670541,40.5510489 39.7552519,40.8970476 40.3088498,41.070047 C42.4886417,41.865844 44.3916346,41.0354471 46.0524284,39.2016539 C47.2634239,37.8868588 48.3360199,35.9146662 49.2702164,33.6656746 C52.0036062,27.1608988 53.8373994,17.7843337 53.941199,15.4661424 C54.9445953,-3.87518556 37.5408601,0.726597293 32.8006778,2.35279123 L32.8006778,2.35279123 Z M52.4188047,15.293143 C52.3150051,17.5075348 50.5504117,26.6419007 47.8862216,32.9736771 C46.9866249,35.0842693 46.0178285,36.8834626 44.9452325,38.0598582 C43.6996372,39.4092532 42.3502422,40.0320508 40.8624478,39.5130528 C40.1704503,39.2708537 39.4784529,38.7518556 38.7864555,37.9560586 C36.8834626,35.6724671 35.153469,33.8040741 34.5306713,33.1120766 C33.8040741,33.4926752 33.0428769,33.7694742 32.21248,33.8732738 C31.9702809,33.9078737 31.6934819,33.9424735 31.4512828,33.9424735 L31.4512828,34.0462731 C31.6242822,34.2538724 31.8318814,34.4614716 32.0048808,34.7036707 C32.6968782,35.5686675 32.9044774,35.8454664 35.2918685,36.3298646 C36.3644645,36.5374639 37.0218621,36.8488627 37.3678608,37.1948614 C37.7484594,37.5408601 37.852259,37.9214587 37.7830592,38.3020573 C37.7138595,38.648056 37.5408601,38.924855 37.2640612,39.2016539 C36.8142628,39.6168524 36.0184658,39.997451 35.3956681,40.1358505 C34.5306713,40.3434497 33.1120766,40.6202487 31.5204826,40.3434497 C30.3440869,40.1358505 29.0984916,39.6514523 27.9566958,38.6134561 C27.9912957,40.793248 27.922096,42.9038401 27.8528962,44.7030334 C27.7490966,47.1596243 27.5068975,49.0626172 27.1954987,49.8584142 C26.8495,50.6888111 26.3305019,51.8998066 25.2579059,52.8340031 C24.15071,53.7681997 22.4899162,54.3563975 19.9987255,53.8027995 C17.991933,53.3876011 16.6079381,52.7302035 15.6045419,51.6922074 C14.6011456,50.6542113 14.0821475,49.3048163 13.7361488,47.4364233 C13.5631495,46.3292274 13.2863505,44.3224349 13.0095515,42.3156423 C12.8019523,40.6894484 12.6289529,39.0978543 12.4905535,37.9560586 C12.352154,37.9906585 12.1791546,38.0598582 12.0061553,38.0944581 C11.3141578,38.2328575 10.4491611,38.2674574 9.58416429,38.2328575 C8.06176996,38.1290579 6.40097615,37.8176591 5.32838015,37.298661 C3.87518556,36.6066636 2.66419007,35.707067 2.14519201,34.9804697 C1.93759278,34.6690708 1.7991933,34.357672 1.76459343,34.080873 C1.72999355,33.5964748 1.93759278,33.2158762 2.3873911,33.008277 C2.73338982,32.8352777 3.28698775,32.8006778 4.08278479,32.9736771 C8.13096971,33.8040741 9.34196519,33.285076 9.72256378,32.9390773 C6.67777512,28.3026945 4.4287835,23.1127139 3.18318814,18.5801308 C1.72999355,13.3209504 1.62619394,8.89216687 3.01018878,7.09297357 C5.12078092,4.39418363 7.71577125,2.90638917 10.3107616,2.17979188 C14.220547,1.03799613 18.0611327,1.59159407 20.1717248,2.11059214 C20.3447242,2.14519201 20.4485238,2.17979188 20.5523234,2.21439175 C20.5869233,2.24899162 21.3827203,2.45659085 21.9709181,2.59499033 C23.1473138,2.31819136 24.427509,2.14519201 25.8115038,2.11059214 C28.6486933,2.07599227 30.8284851,2.76798969 32.5238788,3.9443853 C35.430268,2.8717893 53.3184013,-3.04478866 52.4188047,15.293143 L52.4188047,15.293143 Z" id="Shape"></path>
                <path d="M33.9770734,5.08618105 C38.5788563,9.61876416 38.371257,17.715134 38.371257,17.7843337 C38.371257,17.991933 38.371257,18.2341321 38.3366572,18.5801308 C38.2674574,19.860326 38.1290579,22.282317 38.4750566,24.9811069 C38.5788563,25.6385045 38.5788563,26.3305019 38.5096565,26.9532996 C38.3366572,28.7524929 37.57546,30.3786868 36.4682641,31.5896823 C36.2606649,31.8318814 36.0184658,32.0394806 35.7762667,32.2470799 C36.5374639,33.0428769 38.1982577,34.8420702 39.9282512,36.9872622 C40.4126494,37.57546 40.8970476,37.9214587 41.3122461,38.0944581 C42.1080431,38.371257 42.9038401,37.9560586 43.6996372,37.0564619 C44.6684336,35.9838659 45.5680302,34.3230721 46.3638273,32.3854793 C48.9588176,26.2267023 50.6888111,17.4037352 50.7926108,15.2239433 C51.5884078,0.415198453 38.1290579,3.70218621 33.9770734,5.08618105 L33.9770734,5.08618105 Z" id="Shape"></path>
                <path d="M36.9526623,25.1541063 C36.5374639,22.282317 36.7104632,19.7565264 36.779663,18.4763312 C36.779663,18.2341321 36.8142628,18.0265328 36.8142628,17.7843337 C36.8142628,17.7497339 35.9492661,17.3691353 34.8074703,16.8847371 C34.1500728,16.6079381 33.4234755,16.4003389 32.6968782,16.2965393 C32.0048808,16.1927397 31.3474832,16.1927397 30.7938853,16.365739 C30.067288,16.6079381 29.4444903,17.1961359 29.2022912,18.3379317 C27.922096,24.2545096 29.0292918,26.7457003 29.9288885,28.717893 C30.4824864,29.9288885 30.5516862,30.2402873 30.8284851,30.9322848 C31.0014845,31.4512828 31.1744838,31.935681 31.3128833,32.4200792 C31.5550824,32.4200792 31.7972815,32.3854793 32.0048808,32.3508795 C33.285076,32.1778801 34.4614716,31.5204826 35.3610682,30.5170863 C36.2606649,29.5482899 36.8834626,28.2334948 37.0218621,26.7803002 C37.0564619,26.2613022 37.0218621,25.7077042 36.9526623,25.1541063 L36.9526623,25.1541063 Z M32.4200792,18.4071314 C32.1778801,18.6493305 31.8318814,18.8915296 31.4512828,18.9261295 L31.4512828,18.9261295 C31.0706842,18.9953292 30.6900857,18.8569297 30.4132867,18.6493305 C30.1364877,18.4417313 29.9288885,18.1995322 29.8942886,17.991933 C29.8596887,17.7497339 30.0326881,17.5421346 30.3094871,17.3691353 C30.8284851,17.0923363 31.5896823,16.9885367 32.1778801,17.0923363 C32.5930786,17.1961359 32.731478,17.4037352 32.7660779,17.6113344 C32.8006778,17.8881334 32.6622783,18.1649323 32.4200792,18.4071314 L32.4200792,18.4071314 Z" id="Shape"></path>
            </g>
        </g>
    </g>
</svg>