<?xml version="1.0" encoding="UTF-8" standalone="no"?>
<svg width="41px" height="52px" viewBox="0 0 41 52" version="1.1" xmlns="http://www.w3.org/2000/svg" xmlns:xlink="http://www.w3.org/1999/xlink" xmlns:sketch="http://www.bohemiancoding.com/sketch/ns">
    <!-- Generator: Sketch 3.4.4 (17249) - http://www.bohemiancoding.com/sketch -->
    <title>Slice 1</title>
    <desc>Created with Sketch.</desc>
    <defs></defs>
    <g id="Page-1" stroke="none" stroke-width="1" fill="none" fill-rule="evenodd" sketch:type="MSPage">
        <g id="rails" sketch:type="MSLayerGroup" fill="#B3B3B3">
            <g id="Group" sketch:type="MSShapeGroup">
                <path d="M7.7941049,18.9265698 L4.71784757,17.6022617 L3.68323187,20.6371344 L6.82846359,21.8096989 L7.7941049,18.9265698 Z" id="Shape"></path>
                <path d="M21.9338527,26.7344696 L24.8169818,28.0587777 L24.5272894,26.0033411 L21.8924681,24.5824689 L21.9338527,26.7344696 Z" id="Shape"></path>
                <path d="M29.0520087,1.90369288 L28.5553932,0.234512891 L28.3622649,0.206923139 L28.3622649,0.206923139 L25.8791873,0.0137948759 L26.6517003,1.84851338 L29.0520087,1.90369288 Z" id="Shape"></path>
                <path d="M13.4224143,9.46328489 L10.9669264,7.64236127 L9.25636175,9.95990043 L11.9601574,11.6428753 L13.4224143,9.46328489 Z" id="Shape"></path>
                <path d="M23.0650326,17.5608771 L22.5132375,19.4369802 L24.4996997,21.2579038 L24.9825203,19.5059546 L23.0650326,17.5608771 Z" id="Shape"></path>
                <path d="M27.3000595,36.3770878 L26.3895977,34.1837026 L23.0374428,33.5491383 L23.9203149,36.0873954 L27.3000595,36.3770878 Z" id="Shape"></path>
                <path d="M40.6397045,7.89066904 C39.6050888,6.89743797 38.584268,6.05595054 37.5358574,5.36620674 C37.5220625,5.36620674 37.5220625,5.35241186 37.5082677,5.35241186 C37.3289343,5.24205286 37.1496009,5.11789897 36.9702675,5.00753996 L36.9702675,5.00753996 C35.2734978,4.00051402 33.4387793,3.35215485 31.2591889,3.02107783 L31.245394,3.02107783 C31.0660606,2.99348808 30.8729323,2.96589833 30.6798041,2.93830857 L30.6522143,2.93830857 C30.4866758,2.9245137 30.3349322,2.89692395 30.1693937,2.88312907 C30.1004193,2.86933419 30.0314449,2.86933419 29.9624705,2.86933419 C29.8521115,2.85553932 29.7417525,2.85553932 29.6313935,2.84174444 C29.5624191,2.84174444 29.4796499,2.82794957 29.4106755,2.82794957 C29.2313421,2.81415469 29.0520087,2.80035982 28.8726753,2.80035982 C28.7347266,2.80035982 28.5829829,2.78656494 28.4450342,2.78656494 L28.4174444,2.78656494 L27.9898033,2.78656494 L27.9760084,2.78656494 C19.9611855,2.99348808 6.78707896,10.9945161 4.82820658,39.8947812 L7.94584854,39.8947812 L18.1540567,39.8947812 L24.1686226,39.8947812 C19.8232367,28.6519573 20.3336471,20.1681086 23.3133403,14.4294402 C24.8997511,11.3807726 26.7620593,9.36672076 28.7899061,8.22174606 L28.7899061,8.22174606 C30.2659578,7.38025863 31.8247788,6.9940021 33.4111895,6.9940021 C35.5218055,6.9940021 37.7013959,7.66995102 39.8258068,8.87010523 L39.8258068,8.87010523 C39.922371,8.92528473 40.03273,8.98046423 40.1292941,9.04943861 C40.3362172,8.52523333 40.6397045,7.89066904 40.6397045,7.89066904 L40.6397045,7.89066904 Z" id="Shape"></path>
                <path d="M25.0514947,12.9257988 L26.5275464,14.9398506 L27.4242134,13.6155425 L26.1550848,11.6290804 L25.0514947,12.9257988 Z" id="Shape"></path>
                <path d="M17.4505181,2.91071882 L18.9955442,4.60748856 L20.9406217,3.35215485 L19.3680058,1.29671834 L17.1608257,2.60723155 L17.4505181,2.91071882 L17.4505181,2.91071882 Z" id="Shape"></path>
                <path d="M0.179333387,33.1904715 L0.0689743797,33.6181127 L3.82118063,34.0457538 L4.64887319,30.5556502 L1.04841057,29.9210859 L0.179333387,33.1904715 Z" id="Shape"></path>
                <path d="M37.2875497,4.34538592 L37.9910883,4.78682195 L38.0738576,4.0143089 L36.4322673,2.84174444 L36.4322673,2.84174444 L35.8390877,2.41410329 L35.8390877,3.44871898 L37.2875497,4.34538592 L37.2875497,4.34538592 Z" id="Shape"></path>
                <path d="M35.6735492,9.14600275 L37.3151394,9.21497713 L37.3289343,8.45625895 L35.6183697,8.11138705 L35.6735492,9.14600275 Z" id="Shape"></path>
                <path d="M30.1142142,8.75974622 L30.1142142,8.75974622 L29.4244704,9.02184886 L30.1555988,10.7324135 L31.4799069,10.0150799 L30.9970862,8.4286692 L30.1142142,8.75974622 Z" id="Shape"></path>
            </g>
            <path d="M8.11138705,46.6542704 L8.11138705,45.2333982 C8.11138705,44.47468 7.35266887,43.1089873 5.9593864,43.1089873 L1.4346671,43.1089873 L1.4346671,51.6618104 L3.75220625,51.6618104 L3.75220625,49.1649378 L5.61451451,51.6618104 L8.38728457,51.6618104 L6.22148905,48.7786813 C6.22148905,48.7648864 8.11138705,48.3924248 8.11138705,46.6542704 L8.11138705,46.6542704 Z M5.83523252,47.0819116 L3.73841138,47.0819116 L3.73841138,45.3575521 L5.83523252,45.3575521 L5.83523252,47.0819116 L5.83523252,47.0819116 Z M14.8156968,43.0538078 L12.7188756,43.0538078 C11.670465,43.0538078 10.566875,44.0194491 10.566875,45.2747828 L10.566875,51.6066309 L12.8430295,51.6066309 L12.8430295,49.9374509 L14.8846711,49.9374509 L14.8846711,51.6066309 L17.2022103,51.6066309 L17.2022103,45.2609879 C17.2022103,44.0194491 16.0848253,43.0538078 14.8156968,43.0538078 L14.8156968,43.0538078 Z M14.8846711,47.6475015 L12.8430295,47.6475015 L12.8430295,45.3575521 L14.8846711,45.3575521 L14.8846711,47.6475015 L14.8846711,47.6475015 Z M36.0598057,46.14386 L33.8250358,46.14386 L33.8250358,45.2058084 L37.7289857,45.2058084 L37.7289857,43.0813975 L33.8112409,43.0813975 C32.4317533,43.0813975 31.4937018,44.1711927 31.4937018,45.2747828 L31.4937018,46.1852446 C31.4937018,47.5095527 32.6800611,48.4200145 33.7836512,48.4200145 L35.8528826,48.4200145 L35.8528826,49.4546302 L31.6316505,49.4546302 L31.6316505,51.6204258 L35.7977031,51.6204258 C37.0392419,51.6204258 38.1566268,50.6823742 38.1566268,49.5511944 L38.1566268,48.4200145 C38.1704217,47.0543218 37.0806265,46.14386 36.0598057,46.14386 L36.0598057,46.14386 Z M26.7344696,43.0813975 L24.4445202,43.0813975 L24.4445202,51.6480155 L30.1693937,51.6480155 L30.1693937,49.3580661 L26.7344696,49.3580661 L26.7344696,43.0813975 L26.7344696,43.0813975 Z M19.6714931,51.6342206 L21.9614425,51.6342206 L21.9614425,43.0676027 L19.6714931,43.0676027 L19.6714931,51.6342206 L19.6714931,51.6342206 Z" id="Shape" sketch:type="MSShapeGroup"></path>
        </g>
    </g>
</svg>