<?xml version="1.0" encoding="UTF-8" standalone="no"?>
<svg width="49px" height="42px" viewBox="0 0 49 42" version="1.1" xmlns="http://www.w3.org/2000/svg" xmlns:xlink="http://www.w3.org/1999/xlink" xmlns:sketch="http://www.bohemiancoding.com/sketch/ns">
    <!-- Generator: Sketch 3.4.4 (17249) - http://www.bohemiancoding.com/sketch -->
    <title>Slice 1</title>
    <desc>Created with Sketch.</desc>
    <defs></defs>
    <g id="Page-1" stroke="none" stroke-width="1" fill="none" fill-rule="evenodd" sketch:type="MSPage">
        <g id="ruby" sketch:type="MSLayerGroup" fill="#B3B3B3">
            <path d="M48.4206963,14.7314017 C48.4206963,14.6679042 48.4841937,14.6679042 48.4841937,14.6044068 C48.4841937,14.5409094 48.5476912,14.477412 48.5476912,14.4139145 L48.5476912,14.2869197 L48.5476912,14.0964274 L48.5476912,13.9694326 C48.5476912,13.9059352 48.4841937,13.8424378 48.4841937,13.7789403 L48.4841937,13.6519455 C48.4841937,13.6519455 48.4841937,13.6519455 48.4841937,13.5884481 C48.4841937,13.5884481 48.4841937,13.5884481 48.4841937,13.5249507 L41.6899697,0.634974209 L41.6899697,0.634974209 L41.6899697,0.634974209 C41.6899697,0.571476788 41.6264723,0.507979367 41.5629749,0.507979367 C41.5629749,0.444481946 41.4994774,0.444481946 41.4994774,0.380984525 C41.43598,0.317487105 41.3724826,0.317487105 41.3724826,0.253989684 C41.3089852,0.253989684 41.3089852,0.190492263 41.2454878,0.190492263 C41.1819903,0.126994842 41.1184929,0.126994842 41.0549955,0.126994842 C40.9914981,0.126994842 40.9914981,0.0634974209 40.9280006,0.0634974209 C40.8010058,0.0634974209 40.674011,0 40.6105135,0 L24.6726609,0 L24.1646815,0 L8.22682888,0 L7.9728392,0 C7.46485983,0 7.0838753,0.253989684 6.82988562,0.69847163 L0.289651267,13.5884481 L0.289651267,13.5884481 L0.289651267,13.5884481 L0.289651267,13.7154429 C0.289651267,13.7789403 0.226153846,13.8424378 0.226153846,13.9059352 L0.226153846,14.03293 L0.226153846,14.2234223 L0.226153846,14.3504171 C0.226153846,14.4139145 0.289651267,14.477412 0.289651267,14.5409094 C0.289651267,14.6044068 0.353148688,14.6044068 0.353148688,14.6679042 C0.353148688,14.6679042 0.353148688,14.7314017 0.416646109,14.7314017 C0.416646109,14.7948991 0.48014353,14.7948991 0.48014353,14.8583965 C0.48014353,14.8583965 0.48014353,14.9218939 0.543640951,14.9218939 L23.5297073,40.7018468 C23.5932047,40.7653442 23.6567022,40.8288416 23.7201996,40.8923391 L23.7201996,40.8923391 C23.783697,40.9558365 23.9106918,41.0193339 24.0376867,41.0828313 L24.1011841,41.0828313 C24.2281789,41.1463287 24.3551738,41.1463287 24.4821686,41.1463287 C24.6091635,41.1463287 24.7361583,41.1463287 24.8631532,41.0828313 L24.9266506,41.0828313 C25.0536454,41.0193339 25.1171428,41.0193339 25.2441377,40.8923391 L25.2441377,40.8923391 C25.3076351,40.8288416 25.3711325,40.7653442 25.4346299,40.7018468 L48.4206963,14.9218939 L48.4841937,14.8583965 C48.4841937,14.7948991 48.5476912,14.7948991 48.5476912,14.7314017 C48.4206963,14.7948991 48.4206963,14.7948991 48.4206963,14.7314017 L48.4206963,14.7314017 Z M17.8784369,15.4298733 L30.8319107,15.4298733 L24.3551738,35.749048 L17.8784369,15.4298733 L17.8784369,15.4298733 Z M18.7039033,12.8899764 L24.3551738,4.06383494 L30.0064443,12.8899764 L18.7039033,12.8899764 L18.7039033,12.8899764 Z M45.1823278,12.8899764 L34.5782586,12.8899764 L40.3565239,3.80984525 L45.1823278,12.8899764 L45.1823278,12.8899764 Z M38.1976115,2.53989684 L32.2923514,11.8105203 L26.3870913,2.53989684 L38.1976115,2.53989684 L38.1976115,2.53989684 Z M22.2597589,2.53989684 L16.3544988,11.8105203 L10.4492386,2.53989684 L22.2597589,2.53989684 L22.2597589,2.53989684 Z M8.16333146,3.61935299 L14.0685916,12.8899764 L3.46452231,12.8899764 L8.16333146,3.61935299 L8.16333146,3.61935299 Z M15.2115452,15.4298733 L21.3072976,34.6060944 L4.22649136,15.4298733 L15.2115452,15.4298733 L15.2115452,15.4298733 Z M27.3395526,34.6060944 L33.435305,15.4298733 L44.4838562,15.4298733 L27.3395526,34.6060944 L27.3395526,34.6060944 Z" id="Shape" sketch:type="MSShapeGroup"></path>
        </g>
    </g>
</svg>