<?xml version="1.0" encoding="UTF-8" standalone="no"?>
<svg width="75px" height="40px" viewBox="0 0 75 40" version="1.1" xmlns="http://www.w3.org/2000/svg" xmlns:xlink="http://www.w3.org/1999/xlink" xmlns:sketch="http://www.bohemiancoding.com/sketch/ns">
    <!-- Generator: Sketch 3.4.4 (17249) - http://www.bohemiancoding.com/sketch -->
    <title>Slice 1</title>
    <desc>Created with Sketch.</desc>
    <defs></defs>
    <g id="Page-1" stroke="none" stroke-width="1" fill="none" fill-rule="evenodd" sketch:type="MSPage">
        <g id="mvp" sketch:type="MSLayerGroup" fill="#010101">
            <rect id="Rectangle-path" sketch:type="MSShapeGroup" x="0.67" y="9.6" width="73.65" height="30" rx="2"></rect>
            <path d="M66.42,7.49 L66.42,2.49 C66.42,1.3854305 65.5245695,0.49 64.42,0.49 L54.42,0.49 C53.3154305,0.49 52.42,1.3854305 52.42,2.49 L52.42,7.49 L66.42,7.49 L66.42,7.49 Z" id="Shape" sketch:type="MSShapeGroup"></path>
            <path d="M44.49,7.49 L44.49,2.49 C44.49,1.3854305 43.5945695,0.49 42.49,0.49 L32.49,0.49 C31.3854305,0.49 30.49,1.3854305 30.49,2.49 L30.49,7.49 L44.49,7.49 L44.49,7.49 Z" id="Shape" sketch:type="MSShapeGroup"></path>
            <path d="M22.57,7.49 L22.57,2.49 C22.57,1.3854305 21.6745695,0.49 20.57,0.49 L10.57,0.49 C9.4654305,0.49 8.57,1.3854305 8.57,2.49 L8.57,7.49 L22.57,7.49 L22.57,7.49 Z" id="Shape" sketch:type="MSShapeGroup"></path>
        </g>
    </g>
</svg>