<?xml version="1.0" encoding="UTF-8" standalone="no"?>
<svg width="81px" height="63px" viewBox="0 0 81 63" version="1.1" xmlns="http://www.w3.org/2000/svg" xmlns:xlink="http://www.w3.org/1999/xlink" xmlns:sketch="http://www.bohemiancoding.com/sketch/ns">
    <!-- Generator: Sketch 3.4.4 (17249) - http://www.bohemiancoding.com/sketch -->
    <title>Slice 1</title>
    <desc>Created with Sketch.</desc>
    <defs></defs>
    <g id="Page-1" stroke="none" stroke-width="1" fill="none" fill-rule="evenodd" sketch:type="MSPage">
        <g id="apps" sketch:type="MSLayerGroup" fill="#000000">
            <path d="M79.4142229,27.0456635 L56.2176286,27.0456635 C55.3989253,27.0456635 54.671189,27.7717216 54.671189,28.5885369 L54.671189,61.079636 C54.671189,61.8964513 55.3989253,62.6225094 56.2176286,62.6225094 L79.4142229,62.6225094 C80.2329262,62.6225094 80.9606625,61.8964513 80.9606625,61.079636 L80.9606625,28.5885369 C80.9606625,27.7717216 80.2329262,27.0456635 79.4142229,27.0456635 L79.4142229,27.0456635 Z M67.7704422,61.442665 C67.22464,61.442665 66.7698048,60.9888787 66.7698048,60.4443352 C66.7698048,59.8997916 67.22464,59.4460053 67.7704422,59.4460053 C68.3162444,59.4460053 68.7710796,59.8997916 68.7710796,60.4443352 C68.7710796,60.9888787 68.3162444,61.442665 67.7704422,61.442665 L67.7704422,61.442665 Z M78.9593877,58.2661609 L56.5814967,58.2661609 L56.5814967,30.2221676 L78.9593877,30.2221676 L78.9593877,58.2661609 L78.9593877,58.2661609 Z" id="Shape" sketch:type="MSShapeGroup"></path>
            <path d="M3.27481332,39.2071363 L3.27481332,3.53953314 L71.2271896,3.53953314 L71.2271896,29.4961095 L74.59297,29.4961095 L74.59297,2.35968876 C74.59297,1.3613589 73.7742666,0.54454356 72.7736292,0.54454356 L2.45610999,0.54454356 C1.45547258,0.54454356 0.636769256,1.3613589 0.636769256,2.35968876 L0.636769256,49.2811922 C0.636769256,50.2795221 1.45547258,51.0963374 2.45610999,51.0963374 L32.1113639,51.0963374 L31.2016935,56.7232875 C31.2016935,56.7232875 31.2016935,56.7232875 31.2016935,56.8140448 L27.9268802,56.8140448 C27.472045,56.8140448 27.0172099,57.1770738 27.0172099,57.7216174 C27.0172099,58.1754037 27.472045,58.62919 27.9268802,58.62919 L32.7481332,58.62919 L42.4816061,58.62919 L47.302859,58.62919 C47.7576942,58.62919 48.2125294,58.2661609 48.2125294,57.7216174 C48.2125294,57.2678311 47.7576942,56.8140448 47.302859,56.8140448 L44.0280457,56.8140448 C44.0280457,56.8140448 44.0280457,56.8140448 44.0280457,56.7232875 L43.1183753,51.0963374 L55.7627934,51.0963374 L55.7627934,39.2978936 L3.27481332,39.2978936 L3.27481332,39.2071363 Z" id="Shape" sketch:type="MSShapeGroup"></path>
        </g>
    </g>
</svg>