<?xml version="1.0" encoding="UTF-8" standalone="no"?>
<svg width="24px" height="57px" viewBox="0 0 24 57" version="1.1" xmlns="http://www.w3.org/2000/svg" xmlns:xlink="http://www.w3.org/1999/xlink" xmlns:sketch="http://www.bohemiancoding.com/sketch/ns">
    <!-- Generator: Sketch 3.4.4 (17249) - http://www.bohemiancoding.com/sketch -->
    <title>Slice 1</title>
    <desc>Created with Sketch.</desc>
    <defs></defs>
    <g id="Page-1" stroke="none" stroke-width="1" fill="none" fill-rule="evenodd" sketch:type="MSPage">
        <g id="test" sketch:type="MSLayerGroup" fill="#FFFFFF">
            <ellipse id="Oval" sketch:type="MSShapeGroup" cx="9.85655172" cy="8.90482759" rx="1.79586207" ry="1.79586207"></ellipse>
            <ellipse id="Oval" sketch:type="MSShapeGroup" cx="14.1103448" cy="3.39310345" rx="3.01241379" ry="3.01241379"></ellipse>
            <path d="M22.0468966,1.18344828 C21.1327701,1.18344828 20.3917241,1.92449421 20.3917241,2.83862069 L20.3917241,16.9075862 L3.6,16.9075862 L3.6,2.83862069 C3.6,1.92449421 2.85895407,1.18344828 1.94482759,1.18344828 C1.0307011,1.18344828 0.289655172,1.92449421 0.289655172,2.83862069 L0.289655172,44.9793103 C0.289655172,51.3781957 5.47697669,56.5655172 11.8758621,56.5655172 L12.1158621,56.5655172 C18.5147474,56.5655172 23.702069,51.3781957 23.702069,44.9793103 L23.702069,2.83862069 C23.702069,1.92449421 22.961023,1.18344828 22.0468966,1.18344828 L22.0468966,1.18344828 Z M16.0717241,24.1075862 L20.4331034,24.1075862 L20.4331034,26.2593103 L16.0717241,26.2593103 C15.4775419,26.2593103 14.9958621,25.7776305 14.9958621,25.1834483 C14.9958621,24.5892661 15.4775419,24.1075862 16.0717241,24.1075862 L16.0717241,24.1075862 Z M16.0717241,31.0013793 L20.4331034,31.0013793 L20.4331034,33.1531034 L16.0717241,33.1531034 C15.470686,33.1531034 14.9834483,32.6658657 14.9834483,32.0648276 C14.9834483,31.4637894 15.470686,30.9765517 16.0717241,30.9765517 L16.0717241,31.0013793 Z M16.0717241,37.8951724 L20.4331034,37.8951724 L20.4331034,40.08 L16.0717241,40.08 C15.470686,40.08 14.9834483,39.5927623 14.9834483,38.9917241 C14.9834483,38.390686 15.470686,37.9034483 16.0717241,37.9034483 L16.0717241,37.8951724 Z" id="Shape" sketch:type="MSShapeGroup"></path>
        </g>
    </g>
</svg>