<?xml version="1.0" encoding="UTF-8" standalone="no"?>
<svg width="37px" height="67px" viewBox="0 0 37 67" version="1.1" xmlns="http://www.w3.org/2000/svg" xmlns:xlink="http://www.w3.org/1999/xlink" xmlns:sketch="http://www.bohemiancoding.com/sketch/ns">
    <!-- Generator: Sketch 3.4.4 (17249) - http://www.bohemiancoding.com/sketch -->
    <title>Slice 1</title>
    <desc>Created with Sketch.</desc>
    <defs></defs>
    <g id="Page-1" stroke="none" stroke-width="1" fill="none" fill-rule="evenodd" sketch:type="MSPage">
        <path d="M33.83,0 L2.6,0 C1.16633673,0.00548252 0.00548252,1.16633673 0,2.6 L0,63.98 C0.00548252,65.4136633 1.16633673,66.5745175 2.6,66.58 L33.83,66.58 C35.2636633,66.5745175 36.4245175,65.4136633 36.43,63.98 L36.43,2.6 C36.4245175,1.16633673 35.2636633,0.00548252 33.83,0 L33.83,0 Z M15.66,61 C15.66,59.5916739 16.8016739,58.45 18.21,58.45 C19.6183261,58.45 20.76,59.5916739 20.76,61 C20.76,62.4083261 19.6183261,63.55 18.21,63.55 C17.5302184,63.5500209 16.8785665,63.2786173 16.3997696,62.7960651 C15.9209728,62.313513 15.6546684,61.6597607 15.66,60.98 L15.66,61 Z M1.97,56.62 L1.97,8.1 L34.45,8.1 L34.45,56.6 L1.98,56.6 L1.97,56.62 Z" id="Shape" fill="#FFFFFF" sketch:type="MSShapeGroup"></path>
    </g>
</svg>