<?xml version="1.0" encoding="UTF-8" standalone="no"?>
<svg width="62px" height="39px" viewBox="0 0 62 39" version="1.1" xmlns="http://www.w3.org/2000/svg" xmlns:xlink="http://www.w3.org/1999/xlink" xmlns:sketch="http://www.bohemiancoding.com/sketch/ns">
    <!-- Generator: Sketch 3.4.4 (17249) - http://www.bohemiancoding.com/sketch -->
    <title>Slice 1</title>
    <desc>Created with Sketch.</desc>
    <defs></defs>
    <g id="Page-1" stroke="none" stroke-width="1" fill="none" fill-rule="evenodd" sketch:type="MSPage">
        <g id="tarjeta" sketch:type="MSLayerGroup" fill="#FFFFFF">
            <path d="M-2.13162821e-14,35.5597468 C9.89363303e-16,37.2935015 1.40548585,38.6989873 3.13924051,38.6989873 L58.3349367,38.6989873 C60.0686914,38.6989873 61.4741772,37.2935015 61.4741772,35.5597468 L61.4741772,15.5941772 L-2.13162821e-14,15.5941772 L-2.13162821e-14,35.5597468 L-2.13162821e-14,35.5597468 Z M42.2149367,24.0387342 L56.8359494,24.0387342 C57.3994196,24.0387342 57.8562025,24.4955171 57.8562025,25.0589873 C57.8562025,25.6224576 57.3994196,26.0792405 56.8359494,26.0792405 L42.2227848,26.0792405 C41.6593145,26.0792405 41.2025316,25.6224576 41.2025316,25.0589873 C41.2025316,24.4955171 41.6593145,24.0387342 42.2227848,24.0387342 L42.2149367,24.0387342 Z M35.9364557,28.7475949 L56.8359494,28.7475949 C57.3994196,28.7475949 57.8562025,29.2043778 57.8562025,29.7678481 C57.8562025,30.3313184 57.3994196,30.7881013 56.8359494,30.7881013 L35.9443038,30.7881013 C35.3808335,30.7881013 34.9240506,30.3313184 34.9240506,29.7678481 C34.9240506,29.2043778 35.3808335,28.7475949 35.9443038,28.7475949 L35.9364557,28.7475949 Z M4.18303797,24.0387342 L11.7721519,24.0387342 C12.3356222,24.0387342 12.7924051,24.4955171 12.7924051,25.0589873 C12.7924051,25.6224576 12.3356222,26.0792405 11.7721519,26.0792405 L4.18303797,26.0792405 C3.61956775,26.0770733 3.16454178,25.6185335 3.16670897,25.0550633 C3.16887617,24.4915931 3.62741586,24.036567 4.19088608,24.0387342 L4.18303797,24.0387342 Z" id="Shape" sketch:type="MSShapeGroup"></path>
            <path d="M58.3427848,0.0156962025 L3.13924051,0.0156962025 C1.40548585,0.0156962025 2.13162821e-14,1.42118205 2.13162821e-14,3.15493671 L2.13162821e-14,7.20455696 L61.4741772,7.20455696 L61.4741772,3.15493671 C61.4741826,1.42424231 60.0734738,0.0200229385 58.3427848,0.0156962025 L58.3427848,0.0156962025 Z" id="Shape" sketch:type="MSShapeGroup"></path>
        </g>
    </g>
</svg>